<svg width="20" height="20" viewBox="0 0 20 20" fill="none" xmlns="http://www.w3.org/2000/svg">
<path d="M10.0001 1.66663C5.40008 1.66663 1.66675 5.39996 1.66675 9.99996C1.66675 14.6 5.40008 18.3333 10.0001 18.3333C14.6001 18.3333 18.3334 14.6 18.3334 9.99996C18.3334 5.39996 14.6001 1.66663 10.0001 1.66663ZM9.16675 16.6083C5.88341 16.2 3.33341 13.4 3.33341 9.99996C3.33341 6.59996 5.87508 3.79996 9.16675 3.39163V16.6083ZM10.8334 3.39163C11.6917 3.49996 12.5001 3.76663 13.2251 4.16663H10.8334V3.39163ZM10.8334 5.83329H15.2001C15.4084 6.09163 15.6001 6.37496 15.7667 6.66663H10.8334V5.83329ZM10.8334 8.33329H16.4501C16.5167 8.60829 16.5751 8.88329 16.6084 9.16663H10.8334V8.33329ZM10.8334 16.6083V15.8333H13.2251C12.5001 16.2333 11.6917 16.5 10.8334 16.6083ZM15.2001 14.1666H10.8334V13.3333H15.7667C15.6001 13.625 15.4084 13.9083 15.2001 14.1666ZM16.4501 11.6666H10.8334V10.8333H16.6084C16.5751 11.1166 16.5167 11.3916 16.4501 11.6666Z" fill="#8C8C8C"/>
</svg>
