<svg width="186" height="700" viewBox="0 0 186 700" fill="none" xmlns="http://www.w3.org/2000/svg">
<path d="M30.8916 621.764C31.4276 621.703 31.8259 621.244 31.7952 620.723C31.7646 620.202 31.3051 619.804 30.769 619.835C30.233 619.865 29.8347 620.34 29.8654 620.876C29.896 621.427 30.3555 621.826 30.8916 621.764Z" fill="#58595B"/>
<path d="M31.4438 625.593C31.9645 625.502 32.3321 625.011 32.2555 624.506C32.1789 623.985 31.6735 623.618 31.1528 623.694C30.6167 623.755 30.2644 624.246 30.341 624.782C30.4176 625.318 30.923 625.685 31.4438 625.593Z" fill="#58595B"/>
<path d="M32.1318 629.392C32.6679 629.269 32.9436 628.779 32.8517 628.258C32.7751 627.738 32.2697 627.401 31.7489 627.493C31.2282 627.585 30.8606 628.105 30.9525 628.641C31.0444 629.193 31.6111 629.514 32.1318 629.392Z" fill="#58595B"/>
<path d="M33.0961 633.144C33.6169 632.991 33.9232 632.47 33.7854 631.965C33.6475 631.46 33.1267 631.153 32.606 631.276C32.0852 631.398 31.7789 631.934 31.9168 632.455C32.0546 632.976 32.5907 633.282 33.0961 633.144Z" fill="#58595B"/>
<path d="M34.2614 636.82C34.7668 636.637 35.0272 636.1 34.8434 635.61C34.6596 635.12 34.1082 634.845 33.5875 635.013C33.082 635.166 32.8063 635.718 33.0055 636.223C33.2046 636.728 33.756 637.004 34.2614 636.82Z" fill="#58595B"/>
<path d="M35.593 640.45C36.0831 640.251 36.3434 639.685 36.1597 639.179C35.9759 638.689 35.4245 638.444 34.9344 638.628C34.4289 638.811 34.1839 639.378 34.3677 639.899C34.5515 640.42 35.1028 640.665 35.593 640.45Z" fill="#58595B"/>
<path d="M37.2331 643.958C37.7079 643.728 37.9223 643.146 37.6926 642.671C37.4628 642.196 36.8808 641.997 36.3907 642.212C35.9006 642.426 35.7014 643.008 35.9312 643.498C36.1609 643.988 36.743 644.187 37.2331 643.958Z" fill="#58595B"/>
<path d="M38.9634 647.404C39.4382 647.143 39.5607 646.577 39.331 646.102C39.1012 645.627 38.5345 645.443 38.0597 645.688C37.5849 645.933 37.3858 646.531 37.6309 647.021C37.8759 647.511 38.5192 647.664 38.9634 647.404Z" fill="#58595B"/>
<path d="M40.9858 650.712C41.4299 650.421 41.5831 649.824 41.3074 649.38C41.0317 648.935 40.4344 648.797 39.9749 649.058C39.5154 649.334 39.3776 649.931 39.6533 650.39C39.9443 650.85 40.5416 651.003 40.9858 650.712Z" fill="#58595B"/>
<path d="M43.1599 653.898C43.5887 653.576 43.6806 652.994 43.3743 652.565C43.0527 652.152 42.44 652.06 41.9959 652.351C41.5517 652.657 41.4598 653.239 41.7814 653.683C42.1031 654.128 42.731 654.22 43.1599 653.898Z" fill="#58595B"/>
<path d="M45.4879 656.976C45.9015 656.64 45.978 656.027 45.6564 655.598C45.3348 655.185 44.7374 655.108 44.3086 655.43C43.8797 655.751 43.8031 656.364 44.1401 656.808C44.4771 657.252 45.0744 657.329 45.4879 656.976Z" fill="#58595B"/>
<path d="M48.062 659.871C48.4602 659.504 48.4909 658.906 48.1233 658.523C47.7557 658.141 47.143 658.11 46.7448 658.462C46.3466 658.814 46.316 659.412 46.6835 659.81C47.0511 660.208 47.6638 660.239 48.062 659.871Z" fill="#58595B"/>
<path d="M53.5908 665.263C53.943 664.864 53.8971 664.252 53.5142 663.899C53.116 663.547 52.5033 663.593 52.151 663.991C51.7834 664.39 51.8294 664.987 52.2276 665.355C52.6412 665.707 53.2538 665.661 53.5908 665.263Z" fill="#58595B"/>
<path d="M56.5618 667.728C56.8834 667.3 56.8069 666.718 56.378 666.411C55.9798 666.059 55.3824 666.12 55.0455 666.534C54.7085 666.947 54.7698 667.575 55.168 667.927C55.6122 668.249 56.2401 668.157 56.5618 667.728Z" fill="#58595B"/>
<path d="M59.7174 669.98C60.0237 669.536 59.9165 668.939 59.4877 668.632C59.0588 668.326 58.4615 668.433 58.1398 668.862C57.8182 669.291 57.9254 669.903 58.3696 670.21C58.8137 670.531 59.4111 670.424 59.7174 669.98Z" fill="#58595B"/>
<path d="M62.9643 672.063C63.24 671.604 63.0868 671.021 62.6273 670.761C62.1678 670.501 61.5705 670.654 61.2795 671.098C60.9885 671.542 61.1416 672.124 61.6164 672.4C62.0912 672.676 62.6886 672.523 62.9643 672.063Z" fill="#58595B"/>
<path d="M66.3174 673.977C66.5624 673.503 66.3939 672.905 65.9344 672.645C65.475 672.385 64.8929 672.553 64.6326 673.013C64.3722 673.472 64.5407 674.069 65.0155 674.345C65.4903 674.621 66.0723 674.452 66.3174 673.977Z" fill="#58595B"/>
<path d="M69.8249 675.616C70.0394 675.126 69.8249 674.56 69.3501 674.345C68.8753 674.131 68.2933 674.345 68.0636 674.835C67.8338 675.31 68.0483 675.892 68.5384 676.107C69.0285 676.321 69.6105 676.107 69.8249 675.616Z" fill="#58595B"/>
<path d="M73.3641 677.148C73.5632 676.643 73.2875 676.137 72.828 675.892C72.3532 675.678 71.7865 675.907 71.5874 676.398C71.3883 676.888 71.618 677.47 72.1081 677.699C72.5983 677.944 73.1803 677.638 73.3641 677.148Z" fill="#58595B"/>
<path d="M77.0397 678.373C77.1929 677.868 76.9172 677.316 76.427 677.148C75.9369 676.979 75.3855 677.255 75.2017 677.761C75.0179 678.266 75.2936 678.817 75.8144 678.986C76.3351 679.154 76.8865 678.879 77.0397 678.373Z" fill="#58595B"/>
<path d="M80.7621 679.43C80.8846 678.909 80.5783 678.389 80.0729 678.281C79.5674 678.174 79.0314 678.481 78.8782 678.986C78.725 679.507 79.0314 680.027 79.5674 680.15C80.0882 680.273 80.6242 679.951 80.7621 679.43Z" fill="#58595B"/>
<path d="M84.5293 680.288C84.6212 679.767 84.2996 679.246 83.7788 679.124C83.2581 679.001 82.7526 679.338 82.6454 679.859C82.5229 680.38 82.8598 680.901 83.3959 681.023C83.9167 681.146 84.4221 680.824 84.5293 680.288Z" fill="#58595B"/>
<path d="M88.3429 680.855C88.4042 680.319 88.0366 679.844 87.5312 679.767C87.0104 679.706 86.5203 680.073 86.4284 680.594C86.3365 681.115 86.7041 681.605 87.2402 681.682C87.7915 681.758 88.2817 681.391 88.3429 680.855Z" fill="#58595B"/>
<path d="M92.1879 681.299C92.2339 680.747 91.8203 680.349 91.3149 680.273C90.7941 680.211 90.3346 680.579 90.2734 681.115C90.2121 681.651 90.6103 682.141 91.1464 682.202C91.6825 682.294 92.1573 681.819 92.1879 681.299Z" fill="#58595B"/>
<path d="M96.0469 681.437C96.0469 680.901 95.6333 680.456 95.1126 680.441C94.5918 680.426 94.1477 680.839 94.117 681.375C94.0864 681.911 94.5152 682.356 95.0513 682.371C95.6027 682.386 96.0469 681.957 96.0469 681.437Z" fill="#58595B"/>
<path d="M99.9066 681.375C99.876 680.839 99.4318 680.441 98.911 680.472C98.3903 680.502 97.9614 680.962 97.9768 681.498C97.9768 682.034 98.4209 682.432 98.9723 682.401C99.5237 682.371 99.9372 681.911 99.9066 681.375Z" fill="#58595B"/>
<path d="M103.767 681.13C103.706 680.594 103.246 680.196 102.726 680.227C102.205 680.257 101.807 680.717 101.837 681.253C101.868 681.789 102.343 682.187 102.879 682.156C103.43 682.126 103.828 681.666 103.767 681.13Z" fill="#58595B"/>
<path d="M107.595 680.579C107.503 680.058 107.013 679.691 106.508 679.767C105.987 679.844 105.619 680.349 105.696 680.87C105.757 681.406 106.247 681.758 106.784 681.682C107.32 681.605 107.687 681.115 107.595 680.579Z" fill="#58595B"/>
<path d="M111.409 679.905C111.287 679.369 110.796 679.093 110.276 679.185C109.755 679.262 109.418 679.767 109.51 680.288C109.602 680.809 110.123 681.176 110.659 681.084C111.195 680.977 111.516 680.41 111.409 679.905Z" fill="#58595B"/>
<path d="M115.146 678.925C114.993 678.404 114.472 678.098 113.967 678.236C113.461 678.373 113.155 678.894 113.278 679.415C113.4 679.936 113.936 680.242 114.457 680.104C114.993 679.966 115.299 679.445 115.146 678.925Z" fill="#58595B"/>
<path d="M118.822 677.761C118.638 677.255 118.102 676.995 117.612 677.179C117.122 677.362 116.846 677.914 117.014 678.435C117.168 678.94 117.719 679.216 118.224 679.017C118.73 678.833 119.006 678.266 118.822 677.761Z" fill="#58595B"/>
<path d="M122.468 676.428C122.269 675.938 121.702 675.678 121.197 675.861C120.707 676.045 120.462 676.597 120.645 677.087C120.829 677.592 121.396 677.837 121.917 677.653C122.422 677.485 122.667 676.934 122.468 676.428Z" fill="#58595B"/>
<path d="M125.959 674.805C125.729 674.33 125.147 674.115 124.672 674.345C124.197 674.575 123.998 675.157 124.213 675.647C124.427 676.137 125.009 676.336 125.499 676.107C125.989 675.861 126.204 675.279 125.959 674.805Z" fill="#58595B"/>
<path d="M129.406 673.059C129.146 672.584 128.579 672.461 128.105 672.691C127.63 672.921 127.446 673.487 127.691 673.962C127.936 674.437 128.533 674.636 129.023 674.391C129.529 674.146 129.667 673.518 129.406 673.059Z" fill="#58595B"/>
<path d="M132.715 671.037C132.424 670.593 131.827 670.439 131.383 670.715C130.939 670.991 130.801 671.588 131.061 672.048C131.337 672.507 131.934 672.645 132.394 672.369C132.868 672.094 133.006 671.496 132.715 671.037Z" fill="#58595B"/>
<path d="M135.9 668.877C135.579 668.448 134.997 668.356 134.568 668.663C134.154 668.984 134.062 669.597 134.353 670.041C134.66 670.485 135.242 670.577 135.686 670.256C136.13 669.919 136.222 669.306 135.9 668.877Z" fill="#58595B"/>
<path d="M138.993 666.534C138.656 666.12 138.043 666.044 137.614 666.365C137.201 666.687 137.124 667.284 137.446 667.713C137.768 668.142 138.38 668.219 138.824 667.882C139.253 667.545 139.33 666.947 138.993 666.534Z" fill="#58595B"/>
<path d="M141.873 663.976C141.506 663.578 140.908 663.547 140.525 663.915C140.143 664.267 140.112 664.895 140.464 665.293C140.816 665.691 141.414 665.722 141.812 665.355C142.21 664.987 142.241 664.359 141.873 663.976Z" fill="#58595B"/>
<path d="M144.707 661.342C144.324 660.974 143.696 660.959 143.313 661.311C142.93 661.663 142.915 662.276 143.282 662.659C143.65 663.042 144.278 663.057 144.676 662.69C145.09 662.307 145.09 661.709 144.707 661.342Z" fill="#58595B"/>
<path d="M147.264 658.432C146.866 658.079 146.253 658.125 145.901 658.508C145.549 658.906 145.595 659.519 145.993 659.871C146.391 660.239 146.988 660.193 147.356 659.795C147.708 659.396 147.662 658.784 147.264 658.432Z" fill="#58595B"/>
<path d="M149.746 655.46C149.318 655.139 148.736 655.215 148.429 655.644C148.077 656.042 148.138 656.639 148.552 656.976C148.965 657.313 149.593 657.252 149.946 656.854C150.252 656.41 150.16 655.797 149.746 655.46Z" fill="#58595B"/>
<path d="M151.983 652.32C151.538 652.014 150.941 652.121 150.635 652.55C150.328 652.979 150.436 653.576 150.865 653.898C151.293 654.22 151.906 654.112 152.212 653.668C152.534 653.224 152.427 652.611 151.983 652.32Z" fill="#58595B"/>
<path d="M154.065 649.058C153.605 648.782 153.023 648.935 152.763 649.395C152.503 649.854 152.656 650.452 153.1 650.743C153.544 651.034 154.126 650.881 154.402 650.406C154.677 649.931 154.524 649.334 154.065 649.058Z" fill="#58595B"/>
<path d="M155.98 645.704C155.505 645.459 154.908 645.627 154.648 646.087C154.387 646.546 154.556 647.128 155.015 647.389C155.475 647.649 156.072 647.48 156.348 647.006C156.623 646.531 156.455 645.949 155.98 645.704Z" fill="#58595B"/>
<path d="M157.618 642.212C157.128 641.997 156.561 642.212 156.347 642.686C156.133 643.161 156.347 643.743 156.837 643.973C157.312 644.203 157.894 643.988 158.108 643.498C158.323 643.008 158.108 642.426 157.618 642.212Z" fill="#58595B"/>
<path d="M159.15 638.658C158.645 638.459 158.139 638.735 157.894 639.194C157.68 639.669 157.91 640.236 158.4 640.435C158.89 640.634 159.472 640.404 159.686 639.914C159.947 639.424 159.64 638.842 159.15 638.658Z" fill="#58595B"/>
<path d="M160.375 634.982C159.87 634.829 159.318 635.105 159.15 635.595C158.981 636.1 159.257 636.636 159.762 636.82C160.268 637.004 160.819 636.728 160.988 636.208C161.156 635.687 160.88 635.151 160.375 634.982Z" fill="#58595B"/>
<path d="M161.432 631.276C160.911 631.153 160.39 631.46 160.283 631.965C160.176 632.47 160.482 633.007 160.988 633.16C161.508 633.313 162.029 633.006 162.152 632.47C162.274 631.934 161.953 631.398 161.432 631.276Z" fill="#58595B"/>
<path d="M162.29 627.508C161.769 627.416 161.248 627.738 161.126 628.259C161.003 628.764 161.34 629.285 161.861 629.392C162.382 629.514 162.902 629.178 163.025 628.641C163.147 628.105 162.826 627.6 162.29 627.508Z" fill="#58595B"/>
<path d="M162.872 623.679C162.336 623.618 161.861 623.985 161.785 624.491C161.723 625.011 162.091 625.501 162.612 625.593C163.133 625.685 163.623 625.318 163.699 624.782C163.776 624.245 163.393 623.755 162.872 623.679Z" fill="#58595B"/>
<path d="M163.132 608.255C162.596 608.317 162.198 608.776 162.229 609.297C162.259 609.818 162.719 610.216 163.255 610.185C163.791 610.155 164.189 609.68 164.159 609.144C164.128 608.592 163.668 608.194 163.132 608.255Z" fill="#58595B"/>
<path d="M163.132 612.069C162.596 612.13 162.198 612.59 162.229 613.111C162.259 613.631 162.719 614.03 163.255 613.999C163.791 613.968 164.189 613.494 164.159 612.958C164.128 612.406 163.668 612.023 163.132 612.069Z" fill="#58595B"/>
<path d="M163.132 615.883C162.596 615.944 162.198 616.404 162.229 616.924C162.259 617.445 162.719 617.843 163.255 617.813C163.791 617.782 164.189 617.307 164.159 616.771C164.128 616.235 163.668 615.837 163.132 615.883Z" fill="#58595B"/>
<path d="M163.132 619.789C162.596 619.85 162.198 620.309 162.229 620.83C162.259 621.351 162.719 621.749 163.255 621.718C163.791 621.688 164.189 621.213 164.159 620.677C164.128 620.126 163.668 619.727 163.132 619.789Z" fill="#58595B"/>
<path d="M162.58 604.426C162.059 604.518 161.692 605.008 161.768 605.514C161.845 606.035 162.35 606.402 162.871 606.326C163.407 606.264 163.76 605.774 163.683 605.238C163.606 604.702 163.116 604.335 162.58 604.426Z" fill="#58595B"/>
<path d="M161.908 600.628C161.372 600.75 161.096 601.241 161.188 601.761C161.265 602.282 161.77 602.619 162.291 602.527C162.812 602.435 163.179 601.915 163.087 601.378C162.98 600.842 162.414 600.505 161.908 600.628Z" fill="#58595B"/>
<path d="M160.926 596.876C160.406 597.029 160.099 597.549 160.237 598.055C160.375 598.56 160.896 598.867 161.416 598.744C161.937 598.622 162.244 598.085 162.106 597.565C161.968 597.044 161.447 596.738 160.926 596.876Z" fill="#58595B"/>
<path d="M159.763 593.199C159.258 593.383 158.997 593.919 159.181 594.409C159.365 594.9 159.916 595.175 160.437 595.007C160.943 594.854 161.203 594.302 161.019 593.797C160.835 593.291 160.269 593.016 159.763 593.199Z" fill="#58595B"/>
<path d="M158.446 589.57C157.956 589.769 157.696 590.335 157.88 590.841C158.063 591.331 158.615 591.576 159.105 591.392C159.61 591.208 159.855 590.642 159.672 590.121C159.488 589.6 158.936 589.355 158.446 589.57Z" fill="#58595B"/>
<path d="M156.806 586.062C156.331 586.292 156.117 586.874 156.347 587.349C156.576 587.824 157.158 588.023 157.648 587.808C158.139 587.594 158.338 587.012 158.108 586.522C157.863 586.032 157.281 585.832 156.806 586.062Z" fill="#58595B"/>
<path d="M155.06 582.616C154.585 582.876 154.463 583.443 154.693 583.918C154.922 584.393 155.489 584.576 155.964 584.331C156.439 584.086 156.638 583.489 156.393 582.999C156.163 582.509 155.52 582.356 155.06 582.616Z" fill="#58595B"/>
<path d="M153.053 579.308C152.609 579.599 152.456 580.196 152.732 580.64C153.007 581.084 153.605 581.222 154.064 580.962C154.524 580.686 154.662 580.089 154.386 579.629C154.095 579.17 153.498 579.032 153.053 579.308Z" fill="#58595B"/>
<path d="M150.879 576.122C150.451 576.443 150.359 577.025 150.665 577.454C150.987 577.868 151.599 577.96 152.043 577.669C152.488 577.362 152.579 576.78 152.258 576.336C151.921 575.907 151.308 575.8 150.879 576.122Z" fill="#58595B"/>
<path d="M148.536 573.043C148.122 573.38 148.046 573.993 148.367 574.422C148.689 574.835 149.286 574.912 149.715 574.59C150.144 574.268 150.22 573.656 149.883 573.212C149.547 572.768 148.949 572.691 148.536 573.043Z" fill="#58595B"/>
<path d="M145.977 570.148C145.579 570.516 145.548 571.113 145.916 571.496C146.268 571.879 146.896 571.91 147.294 571.558C147.693 571.205 147.723 570.608 147.356 570.21C146.988 569.811 146.375 569.781 145.977 570.148Z" fill="#58595B"/>
<path d="M143.343 567.315C142.975 567.698 142.96 568.326 143.312 568.709C143.664 569.092 144.277 569.107 144.66 568.739C145.043 568.372 145.058 567.744 144.691 567.346C144.308 566.947 143.71 566.932 143.343 567.315Z" fill="#58595B"/>
<path d="M140.433 564.757C140.081 565.155 140.127 565.768 140.509 566.12C140.908 566.473 141.52 566.427 141.888 566.028C142.256 565.63 142.21 565.033 141.811 564.665C141.398 564.328 140.785 564.359 140.433 564.757Z" fill="#58595B"/>
<path d="M137.478 562.291C137.156 562.72 137.233 563.302 137.662 563.608C138.06 563.961 138.657 563.899 138.994 563.486C139.331 563.072 139.27 562.444 138.872 562.092C138.427 561.77 137.8 561.862 137.478 562.291Z" fill="#58595B"/>
<path d="M134.322 560.04C134.016 560.484 134.123 561.081 134.552 561.388C134.981 561.694 135.578 561.587 135.9 561.158C136.221 560.729 136.114 560.116 135.67 559.81C135.226 559.488 134.629 559.596 134.322 560.04Z" fill="#58595B"/>
<path d="M131.06 557.957C130.784 558.416 130.938 558.998 131.397 559.259C131.857 559.519 132.454 559.366 132.745 558.922C133.036 558.477 132.883 557.895 132.408 557.62C131.949 557.344 131.336 557.497 131.06 557.957Z" fill="#58595B"/>
<path d="M127.707 556.042C127.462 556.517 127.63 557.114 128.09 557.375C128.549 557.635 129.131 557.467 129.391 557.007C129.652 556.548 129.483 555.95 129.009 555.675C128.534 555.399 127.952 555.567 127.707 556.042Z" fill="#58595B"/>
<path d="M124.213 554.403C123.998 554.894 124.213 555.46 124.688 555.675C125.162 555.889 125.744 555.675 125.974 555.185C126.204 554.71 125.989 554.128 125.499 553.913C125.009 553.699 124.427 553.913 124.213 554.403Z" fill="#58595B"/>
<path d="M120.66 552.872C120.46 553.377 120.736 553.883 121.196 554.128C121.67 554.342 122.237 554.112 122.436 553.622C122.635 553.132 122.406 552.55 121.915 552.32C121.425 552.075 120.843 552.382 120.66 552.872Z" fill="#58595B"/>
<path d="M117 551.646C116.846 552.152 117.122 552.703 117.612 552.872C118.102 553.04 118.654 552.765 118.838 552.259C119.021 551.754 118.746 551.202 118.225 551.034C117.704 550.865 117.153 551.141 117 551.646Z" fill="#58595B"/>
<path d="M113.278 550.59C113.155 551.11 113.462 551.631 113.967 551.738C114.473 551.846 115.009 551.539 115.162 551.034C115.315 550.513 115.009 549.992 114.473 549.87C113.936 549.747 113.4 550.069 113.278 550.59Z" fill="#58595B"/>
<path d="M109.511 549.732C109.419 550.253 109.741 550.773 110.261 550.896C110.767 551.018 111.288 550.682 111.395 550.161C111.517 549.64 111.18 549.119 110.644 548.997C110.124 548.874 109.603 549.211 109.511 549.732Z" fill="#58595B"/>
<path d="M105.681 549.165C105.619 549.701 105.987 550.176 106.493 550.253C107.013 550.314 107.503 549.946 107.595 549.426C107.687 548.905 107.32 548.415 106.784 548.338C106.247 548.262 105.757 548.629 105.681 549.165Z" fill="#58595B"/>
<path d="M101.853 548.721C101.807 549.273 102.22 549.671 102.726 549.747C103.246 549.809 103.706 549.441 103.767 548.905C103.828 548.369 103.43 547.879 102.894 547.817C102.358 547.741 101.883 548.2 101.853 548.721Z" fill="#58595B"/>
<path d="M97.9768 548.598C97.9768 549.134 98.3903 549.579 98.9111 549.594C99.4319 549.609 99.876 549.196 99.9067 548.66C99.9373 548.124 99.5084 547.679 98.9724 547.664C98.4363 547.634 97.9921 548.062 97.9768 548.598Z" fill="#58595B"/>
<path d="M94.1166 548.645C94.1473 549.181 94.5914 549.579 95.1122 549.548C95.6329 549.518 96.0618 549.058 96.0465 548.522C96.0465 547.986 95.6023 547.588 95.0509 547.618C94.5149 547.649 94.086 548.108 94.1166 548.645Z" fill="#58595B"/>
<path d="M90.1349 548.828C90.1962 549.364 90.6557 549.763 91.1764 549.732C91.6972 549.701 92.0954 549.242 92.0648 548.706C92.0341 548.17 91.5593 547.771 91.0233 547.802C90.4719 547.833 90.089 548.292 90.1349 548.828Z" fill="#58595B"/>
<path d="M50.7418 662.659C51.1094 662.276 51.1094 661.663 50.7265 661.311C50.3436 660.943 49.7309 660.959 49.348 661.326C48.9651 661.694 48.9651 662.306 49.3633 662.674C49.7616 663.042 50.3742 663.042 50.7418 662.659Z" fill="#58595B"/>
<path d="M46.774 439.164C47.1722 439.516 47.7849 439.47 48.1371 439.087C48.4894 438.689 48.4435 438.076 48.0452 437.709C47.647 437.341 47.0497 437.387 46.6821 437.785C46.3298 438.199 46.3605 438.811 46.774 439.164Z" fill="#58595B"/>
<path d="M44.2926 442.135C44.7215 442.457 45.3035 442.38 45.6098 441.951C45.9621 441.553 45.9008 440.956 45.4873 440.619C45.0737 440.282 44.4458 440.343 44.0935 440.741C43.7719 441.185 43.8638 441.798 44.2926 442.135Z" fill="#58595B"/>
<path d="M42.0415 445.275C42.4856 445.581 43.083 445.474 43.3893 445.045C43.6956 444.616 43.5884 444.019 43.1595 443.697C42.7307 443.376 42.118 443.483 41.8117 443.927C41.5054 444.371 41.5973 444.984 42.0415 445.275Z" fill="#58595B"/>
<path d="M39.9734 448.537C40.4329 448.813 41.0149 448.66 41.2753 448.2C41.5356 447.741 41.3825 447.143 40.9383 446.852C40.4941 446.561 39.9121 446.715 39.6364 447.189C39.3607 447.649 39.5139 448.262 39.9734 448.537Z" fill="#58595B"/>
<path d="M38.0448 451.891C38.5196 452.137 39.1169 451.968 39.3773 451.509C39.6376 451.049 39.4692 450.467 39.0097 450.207C38.5502 449.946 37.9529 450.115 37.6772 450.59C37.4168 451.064 37.57 451.646 38.0448 451.891Z" fill="#58595B"/>
<path d="M36.4055 455.384C36.8957 455.598 37.4624 455.384 37.6768 454.909C37.8912 454.434 37.6768 453.852 37.1867 453.622C36.7119 453.393 36.1298 453.607 35.9154 454.097C35.701 454.587 35.9154 455.169 36.4055 455.384Z" fill="#58595B"/>
<path d="M34.8746 458.937C35.38 459.136 35.8854 458.86 36.1305 458.401C36.3449 457.926 36.1152 457.359 35.6251 457.16C35.1349 456.961 34.5529 457.191 34.3232 457.681C34.0934 458.171 34.3844 458.753 34.8746 458.937Z" fill="#58595B"/>
<path d="M33.649 462.613C34.1545 462.766 34.7058 462.49 34.8743 462C35.0428 461.51 34.7671 460.959 34.2617 460.775C33.7562 460.591 33.2048 460.867 33.0364 461.388C32.8679 461.908 33.1436 462.444 33.649 462.613Z" fill="#58595B"/>
<path d="M32.5916 466.319C33.1124 466.442 33.6332 466.136 33.7404 465.63C33.8476 465.125 33.5413 464.589 33.0358 464.435C32.5151 464.282 31.9943 464.589 31.8718 465.125C31.7493 465.661 32.0862 466.197 32.5916 466.319Z" fill="#58595B"/>
<path d="M31.7346 470.087C32.2553 470.179 32.7761 469.857 32.8986 469.337C33.0212 468.831 32.6842 468.311 32.1634 468.203C31.6427 468.081 31.1219 468.418 30.9994 468.954C30.8769 469.49 31.2138 469.995 31.7346 470.087Z" fill="#58595B"/>
<path d="M31.1676 473.916C31.7037 473.978 32.1785 473.61 32.2551 473.105C32.3163 472.584 31.9487 472.094 31.428 472.002C30.9072 471.91 30.4171 472.277 30.3405 472.814C30.2639 473.35 30.6315 473.84 31.1676 473.916Z" fill="#58595B"/>
<path d="M30.723 477.761C31.2744 477.807 31.6726 477.393 31.7492 476.888C31.8105 476.367 31.4429 475.907 30.9068 475.846C30.3707 475.785 29.8806 476.183 29.8194 476.719C29.7428 477.24 30.2023 477.715 30.723 477.761Z" fill="#58595B"/>
<path d="M30.723 481.59C31.2744 481.636 31.6726 481.222 31.7492 480.717C31.8105 480.196 31.4429 479.736 30.9068 479.675C30.3707 479.614 29.8806 480.012 29.8194 480.548C29.7428 481.069 30.2023 481.544 30.723 481.59Z" fill="#58595B"/>
<path d="M30.723 485.419C31.2744 485.465 31.6726 485.051 31.7492 484.546C31.8105 484.025 31.4429 483.566 30.9068 483.504C30.3707 483.443 29.8806 483.841 29.8194 484.377C29.7428 484.898 30.2023 485.373 30.723 485.419Z" fill="#58595B"/>
<path d="M30.723 489.294C31.2744 489.34 31.6726 488.926 31.7492 488.421C31.8105 487.9 31.4429 487.441 30.9068 487.379C30.3707 487.318 29.8806 487.716 29.8194 488.252C29.7428 488.788 30.2023 489.263 30.723 489.294Z" fill="#58595B"/>
<path d="M31.4438 493.169C31.9645 493.077 32.3321 492.587 32.2555 492.081C32.1789 491.561 31.6735 491.193 31.1528 491.27C30.6167 491.331 30.2644 491.821 30.341 492.357C30.4176 492.893 30.923 493.245 31.4438 493.169Z" fill="#58595B"/>
<path d="M32.1318 496.967C32.6679 496.845 32.9436 496.355 32.8517 495.834C32.7751 495.313 32.2697 494.976 31.7489 495.068C31.2282 495.16 30.8606 495.681 30.9525 496.217C31.0444 496.753 31.6111 497.09 32.1318 496.967Z" fill="#58595B"/>
<path d="M33.0961 500.72C33.6169 500.567 33.9232 500.046 33.7854 499.54C33.6475 499.035 33.1267 498.729 32.606 498.851C32.0852 498.974 31.7789 499.51 31.9168 500.031C32.0546 500.551 32.5907 500.858 33.0961 500.72Z" fill="#58595B"/>
<path d="M34.2614 504.396C34.7668 504.212 35.0272 503.676 34.8434 503.186C34.6596 502.696 34.1082 502.42 33.5875 502.588C33.082 502.742 32.8063 503.293 33.0055 503.798C33.2046 504.304 33.756 504.58 34.2614 504.396Z" fill="#58595B"/>
<path d="M35.593 508.026C36.0831 507.827 36.3434 507.26 36.1597 506.754C35.9759 506.264 35.4245 506.019 34.9344 506.203C34.4289 506.387 34.1839 506.953 34.3677 507.474C34.5515 507.98 35.1028 508.24 35.593 508.026Z" fill="#58595B"/>
<path d="M37.2331 511.533C37.7079 511.303 37.9223 510.721 37.6926 510.247C37.4628 509.772 36.8808 509.573 36.3907 509.787C35.9006 510.001 35.7014 510.583 35.9312 511.074C36.1609 511.564 36.743 511.763 37.2331 511.533Z" fill="#58595B"/>
<path d="M38.9634 514.979C39.4382 514.719 39.5607 514.152 39.331 513.677C39.1012 513.203 38.5345 513.019 38.0597 513.264C37.5849 513.509 37.3858 514.106 37.6309 514.596C37.8759 515.086 38.5192 515.24 38.9634 514.979Z" fill="#58595B"/>
<path d="M40.9858 518.288C41.4299 517.996 41.5831 517.399 41.3074 516.955C41.0317 516.511 40.4344 516.373 39.9749 516.633C39.5154 516.909 39.3776 517.506 39.6533 517.966C39.9443 518.425 40.5416 518.563 40.9858 518.288Z" fill="#58595B"/>
<path d="M43.1599 521.473C43.5887 521.152 43.6806 520.57 43.3743 520.141C43.0527 519.727 42.44 519.635 41.9959 519.926C41.5517 520.233 41.4598 520.815 41.7814 521.259C42.1031 521.688 42.731 521.795 43.1599 521.473Z" fill="#58595B"/>
<path d="M45.4879 524.552C45.9015 524.215 45.978 523.602 45.6564 523.173C45.3348 522.76 44.7374 522.683 44.3086 523.005C43.8797 523.327 43.8031 523.939 44.1401 524.383C44.4771 524.828 45.0744 524.889 45.4879 524.552Z" fill="#58595B"/>
<path d="M48.062 527.447C48.4602 527.079 48.4909 526.482 48.1233 526.099C47.771 525.716 47.143 525.685 46.7448 526.038C46.3466 526.39 46.316 526.987 46.6835 527.385C47.0511 527.784 47.6638 527.814 48.062 527.447Z" fill="#58595B"/>
<path d="M53.5908 532.823C53.943 532.425 53.8971 531.812 53.5142 531.46C53.116 531.107 52.5033 531.153 52.151 531.551C51.7834 531.95 51.8294 532.547 52.2276 532.915C52.6412 533.267 53.2538 533.236 53.5908 532.823Z" fill="#58595B"/>
<path d="M56.5618 535.304C56.8834 534.875 56.8069 534.293 56.378 533.987C55.9798 533.634 55.3824 533.696 55.0455 534.109C54.7085 534.523 54.7698 535.151 55.168 535.503C55.6122 535.825 56.2401 535.733 56.5618 535.304Z" fill="#58595B"/>
<path d="M59.7174 537.555C60.0237 537.111 59.9165 536.514 59.4877 536.208C59.0588 535.901 58.4615 536.009 58.1398 536.437C57.8182 536.866 57.9254 537.479 58.3696 537.785C58.8137 538.107 59.4111 538 59.7174 537.555Z" fill="#58595B"/>
<path d="M62.9643 539.623C63.24 539.164 63.0868 538.582 62.6273 538.321C62.1678 538.061 61.5705 538.214 61.2795 538.658C60.9885 539.102 61.1416 539.684 61.6164 539.96C62.0912 540.251 62.6886 540.083 62.9643 539.623Z" fill="#58595B"/>
<path d="M66.3174 541.553C66.5624 541.078 66.3939 540.481 65.9344 540.22C65.475 539.96 64.8929 540.129 64.6326 540.588C64.3722 541.048 64.5407 541.645 65.0155 541.921C65.4903 542.196 66.0723 542.028 66.3174 541.553Z" fill="#58595B"/>
<path d="M69.8249 543.192C70.0394 542.702 69.8249 542.135 69.3501 541.921C68.8753 541.706 68.2933 541.921 68.0636 542.411C67.8338 542.886 68.0483 543.468 68.5384 543.682C69.0285 543.896 69.6105 543.682 69.8249 543.192Z" fill="#58595B"/>
<path d="M73.3641 544.723C73.5632 544.218 73.2875 543.713 72.828 543.468C72.3532 543.253 71.7865 543.483 71.5874 543.973C71.3883 544.463 71.618 545.045 72.1081 545.275C72.5983 545.52 73.1803 545.214 73.3641 544.723Z" fill="#58595B"/>
<path d="M77.0397 545.949C77.1929 545.443 76.9172 544.892 76.427 544.723C75.9369 544.555 75.3855 544.831 75.2017 545.336C75.0179 545.842 75.2936 546.393 75.8144 546.561C76.3351 546.73 76.8865 546.454 77.0397 545.949Z" fill="#58595B"/>
<path d="M80.7621 547.006C80.8846 546.485 80.5783 545.964 80.0729 545.857C79.5674 545.75 79.0314 546.056 78.8782 546.561C78.725 547.082 79.0314 547.603 79.5674 547.725C80.0882 547.848 80.6242 547.526 80.7621 547.006Z" fill="#58595B"/>
<path d="M84.5293 547.863C84.6212 547.343 84.2996 546.822 83.7788 546.699C83.2734 546.577 82.7526 546.914 82.6454 547.434C82.5229 547.955 82.8598 548.476 83.3959 548.599C83.9167 548.721 84.4221 548.384 84.5293 547.863Z" fill="#58595B"/>
<path d="M88.3429 548.43C88.4042 547.894 88.0366 547.419 87.5312 547.342C87.0104 547.281 86.5203 547.649 86.4284 548.17C86.3365 548.69 86.7041 549.18 87.2402 549.257C87.7915 549.334 88.2817 548.966 88.3429 548.43Z" fill="#58595B"/>
<path d="M101.853 416.296C101.807 416.848 102.22 417.246 102.726 417.323C103.246 417.384 103.706 417.016 103.767 416.48C103.828 415.944 103.43 415.454 102.894 415.393C102.358 415.301 101.883 415.776 101.853 416.296Z" fill="#58595B"/>
<path d="M97.9768 416.159C97.9768 416.695 98.3903 417.139 98.9111 417.154C99.4319 417.169 99.876 416.756 99.9067 416.22C99.9373 415.684 99.5084 415.24 98.9724 415.224C98.4363 415.209 97.9921 415.622 97.9768 416.159Z" fill="#58595B"/>
<path d="M94.1166 416.22C94.1473 416.756 94.5914 417.154 95.1122 417.124C95.6329 417.093 96.0618 416.633 96.0465 416.097C96.0465 415.561 95.6023 415.163 95.0509 415.194C94.5149 415.224 94.086 415.684 94.1166 416.22Z" fill="#58595B"/>
<path d="M90.2579 416.465C90.3192 417.001 90.7787 417.399 91.2994 417.369C91.8202 417.338 92.2184 416.878 92.1878 416.342C92.1572 415.806 91.6824 415.408 91.1463 415.439C90.5949 415.469 90.1967 415.929 90.2579 416.465Z" fill="#58595B"/>
<path d="M86.4286 417.016C86.5205 417.537 87.0106 417.905 87.516 417.828C88.0368 417.751 88.4044 417.246 88.3278 416.725C88.2665 416.189 87.7764 415.837 87.2403 415.914C86.7196 415.99 86.352 416.48 86.4286 417.016Z" fill="#58595B"/>
<path d="M82.6306 417.69C82.7532 418.226 83.2433 418.502 83.764 418.41C84.2848 418.334 84.6217 417.828 84.5298 417.307C84.4379 416.787 83.9172 416.419 83.3811 416.511C82.8451 416.618 82.5081 417.185 82.6306 417.69Z" fill="#58595B"/>
<path d="M78.8935 418.67C79.0467 419.191 79.5674 419.497 80.0729 419.36C80.5783 419.222 80.8846 418.701 80.7621 418.18C80.6396 417.66 80.1035 417.353 79.5827 417.491C79.0467 417.629 78.7403 418.15 78.8935 418.67Z" fill="#58595B"/>
<path d="M75.2017 419.834C75.3855 420.34 75.9215 420.6 76.4116 420.416C76.9018 420.233 77.1774 419.681 77.009 419.161C76.8558 418.655 76.3044 418.379 75.799 418.579C75.2936 418.762 75.0332 419.329 75.2017 419.834Z" fill="#58595B"/>
<path d="M71.5714 421.167C71.7705 421.657 72.3372 421.918 72.8427 421.734C73.3328 421.55 73.5779 420.999 73.3941 420.508C73.2103 420.003 72.6436 419.758 72.1228 419.942C71.6174 420.11 71.3723 420.662 71.5714 421.167Z" fill="#58595B"/>
<path d="M68.0645 422.791C68.2942 423.265 68.8762 423.48 69.351 423.25C69.8258 423.02 70.025 422.438 69.8105 421.948C69.5961 421.458 69.0141 421.259 68.524 421.489C68.0338 421.734 67.8347 422.316 68.0645 422.791Z" fill="#58595B"/>
<path d="M64.6175 424.537C64.8779 425.011 65.4446 425.134 65.9194 424.904C66.3942 424.675 66.578 424.108 66.3329 423.633C66.0879 423.158 65.4905 422.959 65.0004 423.204C64.5103 423.449 64.3571 424.077 64.6175 424.537Z" fill="#58595B"/>
<path d="M61.3241 426.558C61.6151 427.002 62.2125 427.156 62.6566 426.88C63.1008 426.604 63.2387 426.007 62.9783 425.547C62.7026 425.088 62.1052 424.95 61.6458 425.226C61.171 425.502 61.0331 426.099 61.3241 426.558Z" fill="#58595B"/>
<path d="M58.1235 428.718C58.4451 429.147 59.0272 429.239 59.456 428.932C59.8696 428.611 59.9615 427.998 59.6704 427.554C59.3641 427.11 58.7821 427.018 58.3379 427.339C57.9091 427.676 57.8172 428.289 58.1235 428.718Z" fill="#58595B"/>
<path d="M55.045 431.061C55.382 431.475 55.9946 431.552 56.4235 431.23C56.837 430.908 56.9136 430.311 56.5919 429.882C56.2703 429.453 55.6576 429.377 55.2135 429.714C54.7846 430.051 54.708 430.648 55.045 431.061Z" fill="#58595B"/>
<path d="M52.1495 433.619C52.517 434.017 53.1144 434.048 53.4973 433.68C53.8802 433.328 53.9108 432.7 53.5586 432.302C53.2063 431.904 52.6089 431.873 52.2107 432.241C51.8125 432.608 51.7819 433.236 52.1495 433.619Z" fill="#58595B"/>
<path d="M50.7418 530.219C51.1094 529.836 51.1094 529.223 50.7265 528.871C50.3436 528.503 49.7309 528.519 49.348 528.886C48.9651 529.254 48.9651 529.867 49.3633 530.234C49.7616 530.617 50.3742 530.617 50.7418 530.219Z" fill="#58595B"/>
<path d="M49.3782 436.315C49.7611 436.682 50.3737 436.682 50.726 436.299C51.0936 435.917 51.0783 435.304 50.7107 434.921C50.3431 434.538 49.7304 434.538 49.3628 434.936C48.9799 435.335 48.9953 435.947 49.3782 436.315Z" fill="#58595B"/>
<path d="M103.767 416.312C103.706 415.776 103.246 415.378 102.726 415.408C102.205 415.439 101.807 415.898 101.837 416.434C101.868 416.97 102.343 417.369 102.879 417.338C103.43 417.307 103.828 416.848 103.767 416.312Z" fill="#58595B"/>
<path d="M107.595 415.76C107.503 415.24 107.013 414.872 106.508 414.949C105.987 415.025 105.619 415.531 105.696 416.051C105.757 416.587 106.247 416.94 106.784 416.863C107.32 416.787 107.687 416.281 107.595 415.76Z" fill="#58595B"/>
<path d="M111.409 415.071C111.287 414.535 110.796 414.259 110.276 414.351C109.755 414.428 109.418 414.933 109.51 415.454C109.602 415.975 110.123 416.342 110.659 416.251C111.195 416.159 111.516 415.592 111.409 415.071Z" fill="#58595B"/>
<path d="M115.146 414.106C114.993 413.585 114.472 413.279 113.967 413.417C113.461 413.555 113.155 414.076 113.278 414.596C113.4 415.117 113.936 415.423 114.457 415.286C114.993 415.148 115.299 414.612 115.146 414.106Z" fill="#58595B"/>
<path d="M118.822 412.942C118.638 412.437 118.102 412.176 117.612 412.36C117.122 412.544 116.846 413.095 117.014 413.616C117.168 414.122 117.719 414.397 118.224 414.198C118.73 413.999 119.006 413.448 118.822 412.942Z" fill="#58595B"/>
<path d="M122.468 411.61C122.269 411.12 121.702 410.859 121.197 411.043C120.707 411.227 120.462 411.778 120.645 412.268C120.829 412.774 121.396 413.019 121.917 412.835C122.422 412.651 122.667 412.1 122.468 411.61Z" fill="#58595B"/>
<path d="M125.959 409.971C125.729 409.496 125.147 409.282 124.672 409.511C124.197 409.741 123.998 410.323 124.213 410.813C124.427 411.303 125.009 411.502 125.499 411.273C125.989 411.043 126.204 410.461 125.959 409.971Z" fill="#58595B"/>
<path d="M129.406 408.24C129.146 407.765 128.579 407.643 128.105 407.872C127.63 408.102 127.446 408.669 127.691 409.144C127.936 409.618 128.533 409.818 129.023 409.573C129.529 409.327 129.667 408.684 129.406 408.24Z" fill="#58595B"/>
<path d="M132.715 406.218C132.424 405.774 131.827 405.621 131.383 405.897C130.939 406.172 130.801 406.77 131.061 407.229C131.337 407.689 131.934 407.827 132.394 407.551C132.868 407.26 133.006 406.663 132.715 406.218Z" fill="#58595B"/>
<path d="M135.9 404.043C135.579 403.615 134.997 403.523 134.568 403.829C134.154 404.151 134.062 404.763 134.353 405.208C134.66 405.652 135.242 405.744 135.686 405.422C136.13 405.1 136.222 404.472 135.9 404.043Z" fill="#58595B"/>
<path d="M138.993 401.715C138.656 401.302 138.043 401.225 137.614 401.547C137.201 401.869 137.124 402.466 137.446 402.895C137.768 403.324 138.38 403.4 138.824 403.063C139.253 402.726 139.33 402.129 138.993 401.715Z" fill="#58595B"/>
<path d="M141.873 399.142C141.506 398.744 140.908 398.713 140.525 399.081C140.143 399.433 140.112 400.061 140.464 400.459C140.816 400.858 141.414 400.888 141.812 400.521C142.21 400.153 142.241 399.54 141.873 399.142Z" fill="#58595B"/>
<path d="M144.707 396.508C144.324 396.14 143.696 396.125 143.313 396.477C142.93 396.829 142.915 397.442 143.282 397.825C143.65 398.208 144.278 398.223 144.676 397.856C145.09 397.488 145.09 396.891 144.707 396.508Z" fill="#58595B"/>
<path d="M147.264 393.613C146.866 393.261 146.253 393.307 145.901 393.69C145.549 394.088 145.595 394.701 145.993 395.053C146.391 395.42 146.988 395.374 147.356 394.976C147.708 394.563 147.662 393.95 147.264 393.613Z" fill="#58595B"/>
<path d="M149.746 390.642C149.318 390.32 148.736 390.397 148.429 390.825C148.077 391.224 148.138 391.821 148.552 392.158C148.965 392.495 149.593 392.434 149.946 392.035C150.252 391.591 150.16 390.963 149.746 390.642Z" fill="#58595B"/>
<path d="M151.983 387.487C151.538 387.18 150.941 387.287 150.635 387.716C150.328 388.145 150.436 388.743 150.865 389.064C151.293 389.386 151.906 389.279 152.212 388.834C152.534 388.39 152.427 387.793 151.983 387.487Z" fill="#58595B"/>
<path d="M154.065 384.239C153.605 383.964 153.023 384.117 152.763 384.576C152.503 385.036 152.656 385.633 153.1 385.924C153.544 386.215 154.126 386.062 154.402 385.587C154.677 385.112 154.524 384.515 154.065 384.239Z" fill="#58595B"/>
<path d="M155.98 380.885C155.505 380.64 154.908 380.809 154.648 381.268C154.387 381.728 154.556 382.31 155.015 382.57C155.475 382.83 156.072 382.662 156.348 382.187C156.623 381.712 156.455 381.13 155.98 380.885Z" fill="#58595B"/>
<path d="M157.618 377.378C157.128 377.163 156.561 377.378 156.347 377.852C156.133 378.327 156.347 378.909 156.837 379.139C157.312 379.369 157.894 379.154 158.108 378.664C158.323 378.174 158.108 377.592 157.618 377.378Z" fill="#58595B"/>
<path d="M159.15 373.84C158.645 373.641 158.139 373.916 157.894 374.376C157.68 374.851 157.91 375.417 158.4 375.616C158.89 375.816 159.472 375.586 159.686 375.096C159.947 374.605 159.64 374.023 159.15 373.84Z" fill="#58595B"/>
<path d="M160.375 370.164C159.87 370.011 159.318 370.286 159.15 370.776C158.981 371.267 159.257 371.818 159.762 372.002C160.268 372.186 160.819 371.91 160.988 371.389C161.156 370.868 160.88 370.317 160.375 370.164Z" fill="#58595B"/>
<path d="M161.432 366.442C160.911 366.319 160.39 366.626 160.283 367.131C160.176 367.637 160.482 368.173 160.988 368.326C161.508 368.479 162.029 368.173 162.152 367.637C162.274 367.116 161.953 366.58 161.432 366.442Z" fill="#58595B"/>
<path d="M162.29 362.674C161.769 362.582 161.248 362.904 161.126 363.425C161.003 363.93 161.34 364.451 161.861 364.558C162.382 364.681 162.902 364.344 163.025 363.807C163.147 363.287 162.826 362.781 162.29 362.674Z" fill="#58595B"/>
<path d="M162.872 358.86C162.336 358.799 161.861 359.151 161.785 359.672C161.723 360.193 162.091 360.683 162.612 360.775C163.133 360.867 163.623 360.499 163.699 359.963C163.776 359.412 163.393 358.922 162.872 358.86Z" fill="#58595B"/>
<path d="M163.132 343.437C162.596 343.498 162.198 343.958 162.229 344.478C162.259 344.999 162.719 345.397 163.255 345.367C163.791 345.336 164.189 344.861 164.159 344.325C164.128 343.774 163.668 343.376 163.132 343.437Z" fill="#58595B"/>
<path d="M163.132 347.22C162.596 347.281 162.198 347.741 162.229 348.262C162.259 348.782 162.719 349.18 163.255 349.15C163.791 349.119 164.189 348.644 164.159 348.108C164.128 347.557 163.668 347.159 163.132 347.22Z" fill="#58595B"/>
<path d="M163.132 351.049C162.596 351.11 162.198 351.57 162.229 352.091C162.259 352.611 162.719 353.01 163.255 352.979C163.791 352.948 164.189 352.474 164.159 351.937C164.128 351.386 163.668 350.988 163.132 351.049Z" fill="#58595B"/>
<path d="M163.132 354.955C162.596 355.016 162.198 355.475 162.229 355.996C162.259 356.517 162.719 356.915 163.255 356.885C163.791 356.854 164.189 356.379 164.159 355.843C164.128 355.292 163.668 354.893 163.132 354.955Z" fill="#58595B"/>
<path d="M162.58 339.608C162.059 339.7 161.692 340.19 161.768 340.695C161.845 341.216 162.35 341.584 162.871 341.507C163.407 341.446 163.76 340.956 163.683 340.42C163.606 339.884 163.116 339.516 162.58 339.608Z" fill="#58595B"/>
<path d="M161.908 335.794C161.372 335.917 161.096 336.407 161.188 336.928C161.265 337.448 161.77 337.785 162.291 337.693C162.812 337.601 163.179 337.081 163.087 336.545C162.98 336.009 162.414 335.687 161.908 335.794Z" fill="#58595B"/>
<path d="M160.926 332.057C160.406 332.21 160.099 332.731 160.237 333.236C160.375 333.742 160.896 334.048 161.416 333.925C161.937 333.803 162.244 333.267 162.106 332.746C161.968 332.21 161.447 331.904 160.926 332.057Z" fill="#58595B"/>
<path d="M159.763 328.381C159.258 328.565 158.997 329.101 159.181 329.591C159.365 330.081 159.916 330.357 160.437 330.188C160.943 330.035 161.203 329.484 161.019 328.978C160.835 328.473 160.269 328.197 159.763 328.381Z" fill="#58595B"/>
<path d="M158.446 324.736C157.956 324.935 157.696 325.501 157.88 326.007C158.063 326.497 158.615 326.742 159.105 326.558C159.61 326.375 159.855 325.808 159.672 325.287C159.488 324.782 158.936 324.537 158.446 324.736Z" fill="#58595B"/>
<path d="M156.806 321.244C156.331 321.473 156.117 322.055 156.347 322.53C156.576 323.005 157.158 323.204 157.648 322.99C158.139 322.775 158.338 322.193 158.108 321.703C157.863 321.213 157.281 320.999 156.806 321.244Z" fill="#58595B"/>
<path d="M155.06 317.797C154.585 318.058 154.463 318.625 154.693 319.099C154.922 319.574 155.489 319.758 155.964 319.513C156.439 319.268 156.638 318.671 156.393 318.18C156.163 317.675 155.52 317.537 155.06 317.797Z" fill="#58595B"/>
<path d="M153.053 314.489C152.609 314.78 152.456 315.377 152.732 315.822C153.007 316.266 153.605 316.404 154.064 316.143C154.524 315.868 154.662 315.27 154.386 314.811C154.095 314.336 153.498 314.198 153.053 314.489Z" fill="#58595B"/>
<path d="M150.879 311.303C150.451 311.625 150.359 312.207 150.665 312.636C150.987 313.049 151.599 313.141 152.043 312.85C152.488 312.544 152.579 311.962 152.258 311.518C151.921 311.074 151.308 310.982 150.879 311.303Z" fill="#58595B"/>
<path d="M148.536 308.209C148.122 308.546 148.046 309.159 148.367 309.588C148.689 310.001 149.286 310.078 149.715 309.756C150.144 309.435 150.22 308.822 149.883 308.378C149.547 307.949 148.949 307.872 148.536 308.209Z" fill="#58595B"/>
<path d="M145.977 305.33C145.579 305.698 145.548 306.295 145.916 306.678C146.268 307.061 146.896 307.091 147.294 306.739C147.693 306.387 147.723 305.789 147.356 305.391C146.988 304.993 146.375 304.962 145.977 305.33Z" fill="#58595B"/>
<path d="M143.343 302.496C142.975 302.879 142.96 303.507 143.312 303.89C143.664 304.273 144.277 304.288 144.66 303.906C145.043 303.538 145.058 302.91 144.691 302.512C144.308 302.114 143.71 302.114 143.343 302.496Z" fill="#58595B"/>
<path d="M140.433 299.939C140.081 300.337 140.127 300.95 140.509 301.302C140.908 301.654 141.52 301.608 141.888 301.21C142.256 300.812 142.21 300.214 141.811 299.847C141.398 299.494 140.785 299.54 140.433 299.939Z" fill="#58595B"/>
<path d="M137.478 297.457C137.156 297.886 137.233 298.468 137.662 298.775C138.06 299.127 138.657 299.066 138.994 298.652C139.331 298.238 139.27 297.611 138.872 297.258C138.427 296.952 137.8 297.044 137.478 297.457Z" fill="#58595B"/>
<path d="M134.322 295.221C134.016 295.665 134.123 296.263 134.552 296.569C134.981 296.875 135.578 296.768 135.9 296.339C136.221 295.91 136.114 295.298 135.67 294.992C135.226 294.67 134.629 294.777 134.322 295.221Z" fill="#58595B"/>
<path d="M131.06 293.138C130.784 293.598 130.938 294.18 131.397 294.44C131.857 294.7 132.454 294.547 132.745 294.103C133.036 293.659 132.883 293.077 132.408 292.801C131.949 292.526 131.336 292.679 131.06 293.138Z" fill="#58595B"/>
<path d="M127.707 291.224C127.462 291.698 127.63 292.296 128.09 292.556C128.549 292.817 129.131 292.648 129.391 292.189C129.652 291.729 129.483 291.132 129.009 290.856C128.534 290.58 127.952 290.749 127.707 291.224Z" fill="#58595B"/>
<path d="M124.213 289.585C123.998 290.075 124.213 290.642 124.688 290.856C125.162 291.071 125.744 290.856 125.974 290.366C126.204 289.891 125.989 289.309 125.499 289.095C125.009 288.88 124.427 289.095 124.213 289.585Z" fill="#58595B"/>
<path d="M120.66 288.053C120.46 288.559 120.736 289.064 121.196 289.309C121.67 289.524 122.237 289.294 122.436 288.804C122.635 288.314 122.406 287.732 121.915 287.502C121.425 287.257 120.843 287.563 120.66 288.053Z" fill="#58595B"/>
<path d="M117 286.828C116.846 287.333 117.122 287.885 117.612 288.053C118.102 288.222 118.654 287.946 118.838 287.441C119.021 286.935 118.746 286.384 118.225 286.215C117.704 286.047 117.153 286.322 117 286.828Z" fill="#58595B"/>
<path d="M113.278 285.771C113.155 286.292 113.462 286.813 113.967 286.92C114.473 287.027 115.009 286.721 115.162 286.215C115.315 285.694 115.009 285.174 114.473 285.051C113.936 284.929 113.4 285.25 113.278 285.771Z" fill="#58595B"/>
<path d="M109.511 284.913C109.419 285.434 109.741 285.955 110.261 286.077C110.767 286.2 111.288 285.863 111.395 285.342C111.517 284.822 111.18 284.301 110.644 284.178C110.124 284.056 109.603 284.377 109.511 284.913Z" fill="#58595B"/>
<path d="M105.681 284.331C105.619 284.867 105.987 285.342 106.493 285.419C107.013 285.48 107.503 285.112 107.595 284.592C107.687 284.071 107.32 283.581 106.784 283.504C106.247 283.428 105.757 283.811 105.681 284.331Z" fill="#58595B"/>
<path d="M101.853 283.902C101.807 284.454 102.22 284.852 102.726 284.929C103.246 284.99 103.706 284.622 103.767 284.086C103.828 283.55 103.43 283.06 102.894 282.999C102.358 282.907 101.883 283.382 101.853 283.902Z" fill="#58595B"/>
<path d="M97.9768 283.765C97.9768 284.301 98.3903 284.745 98.9111 284.76C99.4319 284.776 99.876 284.362 99.9067 283.826C99.9373 283.29 99.5084 282.846 98.9724 282.83C98.4363 282.815 97.9921 283.229 97.9768 283.765Z" fill="#58595B"/>
<path d="M94.1166 283.826C94.1473 284.362 94.5914 284.76 95.1122 284.73C95.6329 284.699 96.0618 284.239 96.0465 283.703C96.0465 283.167 95.6023 282.769 95.0509 282.8C94.5149 282.83 94.086 283.29 94.1166 283.826Z" fill="#58595B"/>
<path d="M46.774 173.978C47.1722 174.33 47.7849 174.284 48.1371 173.901C48.4894 173.503 48.4435 172.89 48.0452 172.523C47.647 172.155 47.0497 172.201 46.6821 172.599C46.3298 173.013 46.3605 173.625 46.774 173.978Z" fill="#58595B"/>
<path d="M44.2926 176.934C44.7215 177.255 45.3035 177.179 45.6098 176.75C45.9621 176.352 45.9008 175.754 45.4873 175.417C45.0737 175.08 44.4458 175.142 44.0935 175.54C43.7719 175.984 43.8638 176.612 44.2926 176.934Z" fill="#58595B"/>
<path d="M42.0415 180.089C42.4856 180.395 43.083 180.288 43.3893 179.859C43.6956 179.43 43.5884 178.833 43.1595 178.511C42.7307 178.19 42.118 178.297 41.8117 178.741C41.5054 179.185 41.5973 179.782 42.0415 180.089Z" fill="#58595B"/>
<path d="M39.9734 183.336C40.4329 183.612 41.0149 183.458 41.2753 182.999C41.5356 182.539 41.3825 181.942 40.9383 181.651C40.4941 181.36 39.9121 181.513 39.6364 181.988C39.3607 182.463 39.5139 183.075 39.9734 183.336Z" fill="#58595B"/>
<path d="M38.0448 186.705C38.5196 186.951 39.1169 186.782 39.3773 186.323C39.6376 185.863 39.4692 185.281 39.0097 185.021C38.5502 184.76 37.9529 184.929 37.6772 185.404C37.4168 185.878 37.57 186.46 38.0448 186.705Z" fill="#58595B"/>
<path d="M36.4055 190.198C36.8957 190.412 37.4624 190.198 37.6768 189.723C37.8912 189.248 37.6768 188.666 37.1867 188.436C36.7119 188.206 36.1298 188.421 35.9154 188.911C35.701 189.401 35.9154 189.983 36.4055 190.198Z" fill="#58595B"/>
<path d="M34.8746 193.751C35.38 193.95 35.8854 193.674 36.1305 193.215C36.3449 192.74 36.1152 192.173 35.6251 191.974C35.1349 191.775 34.5529 192.005 34.3232 192.495C34.0934 192.985 34.3844 193.567 34.8746 193.751Z" fill="#58595B"/>
<path d="M33.649 197.411C34.1545 197.565 34.7058 197.289 34.8743 196.799C35.0428 196.293 34.7671 195.757 34.2617 195.573C33.7562 195.39 33.2048 195.665 33.0364 196.186C32.8679 196.707 33.1436 197.258 33.649 197.411Z" fill="#58595B"/>
<path d="M32.5916 201.133C33.1124 201.256 33.6332 200.949 33.7404 200.444C33.8476 199.939 33.5413 199.403 33.0358 199.249C32.5151 199.096 31.9943 199.403 31.8718 199.939C31.7493 200.475 32.0862 200.995 32.5916 201.133Z" fill="#58595B"/>
<path d="M31.7346 204.901C32.2553 204.993 32.7761 204.671 32.8986 204.151C33.0212 203.645 32.6842 203.124 32.1634 203.017C31.6427 202.895 31.1219 203.232 30.9994 203.768C30.8769 204.288 31.2138 204.809 31.7346 204.901Z" fill="#58595B"/>
<path d="M31.1676 208.73C31.7037 208.791 32.1785 208.424 32.2551 207.918C32.3163 207.398 31.9487 206.908 31.428 206.816C30.9072 206.724 30.4171 207.091 30.3405 207.627C30.2639 208.163 30.6315 208.654 31.1676 208.73Z" fill="#58595B"/>
<path d="M30.723 212.559C31.2744 212.605 31.6726 212.192 31.7492 211.686C31.8105 211.166 31.4429 210.706 30.9068 210.645C30.3707 210.584 29.8806 210.982 29.8194 211.518C29.7428 212.054 30.2023 212.529 30.723 212.559Z" fill="#58595B"/>
<path d="M30.723 216.388C31.2744 216.434 31.6726 216.021 31.7492 215.515C31.8105 214.995 31.4429 214.535 30.9068 214.474C30.3707 214.412 29.8806 214.811 29.8194 215.347C29.7428 215.883 30.2023 216.358 30.723 216.388Z" fill="#58595B"/>
<path d="M30.723 220.217C31.2744 220.263 31.6726 219.85 31.7492 219.344C31.8105 218.824 31.4429 218.364 30.9068 218.303C30.3707 218.242 29.8806 218.64 29.8194 219.176C29.7428 219.712 30.2023 220.187 30.723 220.217Z" fill="#58595B"/>
<path d="M30.723 224.108C31.2744 224.154 31.6726 223.74 31.7492 223.235C31.8105 222.714 31.4429 222.255 30.9068 222.193C30.3707 222.132 29.8806 222.53 29.8194 223.066C29.7428 223.587 30.2023 224.062 30.723 224.108Z" fill="#58595B"/>
<path d="M31.4438 227.983C31.9645 227.891 32.3321 227.401 32.2555 226.895C32.1789 226.375 31.6735 226.007 31.1528 226.084C30.6167 226.145 30.2644 226.635 30.341 227.171C30.4176 227.692 30.923 228.059 31.4438 227.983Z" fill="#58595B"/>
<path d="M32.1318 231.781C32.6679 231.659 32.9436 231.169 32.8517 230.648C32.7751 230.127 32.2697 229.79 31.7489 229.882C31.2282 229.974 30.8606 230.495 30.9525 231.031C31.0444 231.567 31.6111 231.888 32.1318 231.781Z" fill="#58595B"/>
<path d="M33.0961 235.518C33.6169 235.365 33.9232 234.844 33.7854 234.339C33.6475 233.834 33.1267 233.527 32.606 233.65C32.0852 233.772 31.7789 234.308 31.9168 234.829C32.0546 235.365 32.5907 235.672 33.0961 235.518Z" fill="#58595B"/>
<path d="M34.2614 239.21C34.7668 239.026 35.0272 238.49 34.8434 238C34.6596 237.509 34.1082 237.234 33.5875 237.402C33.082 237.555 32.8063 238.107 33.0055 238.612C33.2046 239.118 33.756 239.378 34.2614 239.21Z" fill="#58595B"/>
<path d="M35.593 242.839C36.0831 242.64 36.3434 242.074 36.1597 241.568C35.9759 241.078 35.4245 240.833 34.9344 241.017C34.4289 241.201 34.1839 241.767 34.3677 242.288C34.5515 242.794 35.1028 243.039 35.593 242.839Z" fill="#58595B"/>
<path d="M37.2331 246.347C37.7079 246.117 37.9223 245.535 37.6926 245.06C37.4628 244.586 36.8808 244.386 36.3907 244.601C35.9006 244.815 35.7014 245.397 35.9312 245.887C36.1609 246.362 36.743 246.577 37.2331 246.347Z" fill="#58595B"/>
<path d="M38.9634 249.793C39.4382 249.533 39.5607 248.966 39.331 248.491C39.1012 248.016 38.5345 247.833 38.0597 248.078C37.5849 248.323 37.3858 248.92 37.6309 249.41C37.8759 249.9 38.5192 250.054 38.9634 249.793Z" fill="#58595B"/>
<path d="M40.9858 253.086C41.4299 252.795 41.5831 252.198 41.3074 251.754C41.0317 251.309 40.4344 251.172 39.9749 251.432C39.5154 251.708 39.3776 252.305 39.6533 252.765C39.9443 253.239 40.5416 253.377 40.9858 253.086Z" fill="#58595B"/>
<path d="M43.1599 256.287C43.5887 255.966 43.6806 255.384 43.3743 254.955C43.0527 254.541 42.44 254.449 41.9959 254.74C41.5517 255.047 41.4598 255.629 41.7814 256.073C42.1031 256.502 42.731 256.594 43.1599 256.287Z" fill="#58595B"/>
<path d="M45.4879 259.366C45.9015 259.029 45.978 258.416 45.6564 257.987C45.3348 257.574 44.7374 257.497 44.3086 257.819C43.8797 258.14 43.8031 258.753 44.1401 259.197C44.4771 259.626 45.0744 259.703 45.4879 259.366Z" fill="#58595B"/>
<path d="M48.062 262.261C48.4602 261.893 48.4909 261.296 48.1233 260.913C47.771 260.53 47.143 260.499 46.7448 260.851C46.3466 261.204 46.316 261.801 46.6835 262.199C47.0511 262.598 47.6638 262.613 48.062 262.261Z" fill="#58595B"/>
<path d="M53.5908 267.637C53.943 267.238 53.8971 266.626 53.5142 266.274C53.116 265.921 52.5033 265.967 52.151 266.365C51.7834 266.764 51.8294 267.361 52.2276 267.729C52.6412 268.081 53.2538 268.05 53.5908 267.637Z" fill="#58595B"/>
<path d="M56.5618 270.118C56.8834 269.689 56.8069 269.107 56.378 268.801C55.9798 268.448 55.3824 268.51 55.0455 268.923C54.7085 269.337 54.7698 269.965 55.168 270.317C55.6122 270.639 56.2401 270.547 56.5618 270.118Z" fill="#58595B"/>
<path d="M59.7174 272.369C60.0237 271.925 59.9165 271.328 59.4877 271.021C59.0588 270.715 58.4615 270.822 58.1398 271.251C57.8182 271.68 57.9254 272.293 58.3696 272.599C58.8137 272.905 59.4111 272.798 59.7174 272.369Z" fill="#58595B"/>
<path d="M62.9643 274.437C63.24 273.978 63.0868 273.396 62.6273 273.135C62.1678 272.875 61.5705 273.028 61.2795 273.472C60.9885 273.916 61.1416 274.498 61.6164 274.774C62.0912 275.05 62.6886 274.897 62.9643 274.437Z" fill="#58595B"/>
<path d="M66.3174 276.352C66.5624 275.877 66.3939 275.279 65.9344 275.019C65.475 274.759 64.8929 274.927 64.6326 275.387C64.3722 275.846 64.5407 276.444 65.0155 276.719C65.4903 276.995 66.0723 276.826 66.3174 276.352Z" fill="#58595B"/>
<path d="M69.8249 278.006C70.0394 277.516 69.8249 276.949 69.3501 276.734C68.8753 276.52 68.2933 276.734 68.0636 277.225C67.8338 277.699 68.0483 278.281 68.5384 278.496C69.0285 278.71 69.6105 278.481 69.8249 278.006Z" fill="#58595B"/>
<path d="M73.3641 279.537C73.5632 279.032 73.2875 278.526 72.828 278.281C72.3532 278.067 71.7865 278.297 71.5874 278.787C71.3883 279.277 71.618 279.859 72.1081 280.089C72.5983 280.318 73.1803 280.027 73.3641 279.537Z" fill="#58595B"/>
<path d="M77.0397 280.747C77.1929 280.242 76.9172 279.691 76.427 279.522C75.9369 279.354 75.3855 279.629 75.2017 280.135C75.0179 280.64 75.2936 281.191 75.8144 281.36C76.3351 281.544 76.8865 281.268 77.0397 280.747Z" fill="#58595B"/>
<path d="M80.7621 281.804C80.8846 281.283 80.5783 280.763 80.0729 280.655C79.5674 280.548 79.0314 280.855 78.8782 281.36C78.725 281.881 79.0314 282.402 79.5674 282.524C80.0882 282.647 80.6242 282.325 80.7621 281.804Z" fill="#58595B"/>
<path d="M84.5293 282.677C84.6212 282.157 84.2996 281.636 83.7788 281.513C83.2734 281.391 82.7526 281.728 82.6454 282.248C82.5229 282.769 82.8598 283.29 83.3959 283.412C83.9167 283.535 84.4221 283.198 84.5293 282.677Z" fill="#58595B"/>
<path d="M88.3429 283.244C88.4042 282.708 88.0366 282.233 87.5312 282.156C87.0257 282.08 86.5203 282.463 86.4284 282.984C86.3365 283.504 86.7041 283.994 87.2402 284.071C87.7915 284.148 88.2817 283.78 88.3429 283.244Z" fill="#58595B"/>
<path d="M92.1879 283.688C92.2339 283.137 91.8203 282.739 91.3149 282.662C90.7941 282.601 90.3346 282.968 90.2734 283.504C90.2121 284.04 90.6103 284.531 91.1464 284.592C91.6825 284.668 92.1573 284.209 92.1879 283.688Z" fill="#58595B"/>
<path d="M96.0469 283.811C96.0469 283.274 95.6333 282.83 95.1126 282.815C94.5918 282.8 94.1477 283.213 94.117 283.749C94.0864 284.285 94.5152 284.73 95.0513 284.745C95.5874 284.76 96.0469 284.347 96.0469 283.811Z" fill="#58595B"/>
<path d="M99.9066 283.749C99.876 283.213 99.4318 282.815 98.911 282.846C98.3903 282.876 97.9614 283.336 97.9768 283.872C97.9768 284.408 98.4209 284.806 98.9723 284.775C99.5237 284.745 99.9372 284.285 99.9066 283.749Z" fill="#58595B"/>
<path d="M101.853 151.095C101.807 151.646 102.22 152.045 102.726 152.121C103.246 152.183 103.706 151.815 103.767 151.279C103.828 150.743 103.43 150.253 102.894 150.191C102.358 150.115 101.883 150.59 101.853 151.095Z" fill="#58595B"/>
<path d="M90.2579 151.263C90.3192 151.8 90.7787 152.198 91.2994 152.167C91.8202 152.136 92.2184 151.677 92.1878 151.141C92.1572 150.605 91.6824 150.207 91.1463 150.237C90.5949 150.283 90.1967 150.743 90.2579 151.263Z" fill="#58595B"/>
<path d="M86.4286 151.83C86.5205 152.351 87.0106 152.719 87.516 152.642C88.0368 152.565 88.4044 152.06 88.3278 151.539C88.2665 151.003 87.7764 150.651 87.2403 150.727C86.7196 150.804 86.352 151.294 86.4286 151.83Z" fill="#58595B"/>
<path d="M82.6306 152.504C82.7532 153.04 83.2433 153.316 83.764 153.224C84.2848 153.147 84.6217 152.642 84.5298 152.121C84.4379 151.6 83.9172 151.233 83.3811 151.325C82.8451 151.432 82.5081 151.983 82.6306 152.504Z" fill="#58595B"/>
<path d="M78.8935 153.469C79.0467 153.99 79.5674 154.296 80.0729 154.158C80.5783 154.02 80.8846 153.5 80.7621 152.979C80.6396 152.458 80.1035 152.152 79.5827 152.29C79.0467 152.428 78.7403 152.964 78.8935 153.469Z" fill="#58595B"/>
<path d="M75.2017 154.633C75.3855 155.138 75.9215 155.399 76.4116 155.215C76.9018 155.031 77.1774 154.48 77.009 153.959C76.8558 153.454 76.3044 153.178 75.799 153.377C75.2936 153.576 75.0332 154.128 75.2017 154.633Z" fill="#58595B"/>
<path d="M71.5714 155.966C71.7705 156.456 72.3372 156.716 72.8427 156.532C73.3328 156.348 73.5779 155.797 73.3941 155.307C73.2103 154.802 72.6436 154.556 72.1228 154.74C71.6174 154.924 71.3723 155.475 71.5714 155.966Z" fill="#58595B"/>
<path d="M68.0645 157.604C68.2942 158.079 68.8762 158.294 69.351 158.064C69.8258 157.834 70.025 157.252 69.8105 156.762C69.5961 156.272 69.0141 156.073 68.524 156.303C68.0338 156.548 67.8347 157.13 68.0645 157.604Z" fill="#58595B"/>
<path d="M64.6175 159.35C64.8779 159.825 65.4446 159.948 65.9194 159.718C66.3942 159.488 66.578 158.922 66.3329 158.447C66.0879 157.972 65.4905 157.773 65.0004 158.018C64.5103 158.248 64.3571 158.891 64.6175 159.35Z" fill="#58595B"/>
<path d="M61.3241 161.357C61.6151 161.801 62.2125 161.954 62.6566 161.679C63.1008 161.403 63.2387 160.806 62.9783 160.346C62.7026 159.887 62.1052 159.749 61.6458 160.024C61.171 160.315 61.0331 160.913 61.3241 161.357Z" fill="#58595B"/>
<path d="M58.1235 163.532C58.4451 163.961 59.0272 164.053 59.456 163.746C59.8696 163.425 59.9615 162.812 59.6704 162.368C59.3641 161.924 58.7821 161.832 58.3379 162.153C57.9091 162.49 57.8172 163.103 58.1235 163.532Z" fill="#58595B"/>
<path d="M55.045 165.875C55.382 166.289 55.9946 166.365 56.4235 166.044C56.837 165.722 56.9136 165.125 56.5919 164.696C56.2703 164.267 55.6576 164.19 55.2135 164.527C54.7846 164.849 54.708 165.462 55.045 165.875Z" fill="#58595B"/>
<path d="M52.1495 168.433C52.517 168.831 53.1144 168.862 53.4973 168.494C53.8802 168.142 53.9108 167.514 53.5586 167.116C53.2063 166.718 52.6089 166.687 52.2107 167.055C51.8125 167.422 51.7819 168.035 52.1495 168.433Z" fill="#58595B"/>
<path d="M50.7418 265.033C51.1094 264.65 51.1094 264.037 50.7265 263.685C50.3436 263.317 49.7309 263.333 49.348 263.7C48.9651 264.068 48.9651 264.681 49.3633 265.048C49.7616 265.431 50.3742 265.416 50.7418 265.033Z" fill="#58595B"/>
<path d="M49.3782 171.129C49.7611 171.496 50.3737 171.496 50.726 171.113C51.0936 170.731 51.0783 170.118 50.7107 169.735C50.3431 169.352 49.7304 169.352 49.3628 169.75C48.9799 170.133 48.9953 170.761 49.3782 171.129Z" fill="#58595B"/>
<path d="M46.774 41.5683C47.1722 41.9205 47.7849 41.8746 48.1371 41.4917C48.4894 41.0935 48.4435 40.4808 48.0452 40.1285C47.647 39.7609 47.0497 39.8069 46.6821 40.2051C46.3298 40.6033 46.3605 41.216 46.774 41.5683Z" fill="#58595B"/>
<path d="M44.2926 44.5243C44.7215 44.846 45.3035 44.7694 45.6098 44.3405C45.9621 43.9423 45.9008 43.345 45.4873 43.008C45.0737 42.6711 44.4458 42.717 44.0935 43.1305C43.7719 43.5747 43.8638 44.2027 44.2926 44.5243Z" fill="#58595B"/>
<path d="M42.0415 47.6796C42.4856 47.9859 43.083 47.8787 43.3893 47.4498C43.6956 47.021 43.5884 46.4236 43.1595 46.102C42.7307 45.7803 42.118 45.8876 41.8117 46.3317C41.5054 46.7759 41.5973 47.3732 42.0415 47.6796Z" fill="#58595B"/>
<path d="M39.9734 50.9419C40.4329 51.2176 41.0149 51.0644 41.2753 50.605C41.5356 50.1455 41.3825 49.5481 40.9383 49.2571C40.4941 48.9661 39.9121 49.1193 39.6364 49.5941C39.3607 50.0536 39.5139 50.6662 39.9734 50.9419Z" fill="#58595B"/>
<path d="M38.0448 54.2962C38.5196 54.5412 39.1169 54.3727 39.3773 53.9133C39.6376 53.4538 39.4692 52.8717 39.0097 52.6114C38.5502 52.351 37.9529 52.5195 37.6772 52.9943C37.4168 53.4691 37.57 54.0511 38.0448 54.2962Z" fill="#58595B"/>
<path d="M36.4055 57.7883C36.8957 58.0028 37.4624 57.7883 37.6768 57.3135C37.8912 56.8387 37.6768 56.2567 37.1867 56.027C36.7119 55.7972 36.1298 56.0117 35.9154 56.5018C35.701 56.9919 35.9154 57.5739 36.4055 57.7883Z" fill="#58595B"/>
<path d="M34.8746 61.3416C35.38 61.5254 35.9008 61.265 36.1305 60.7902C36.3449 60.3154 36.1152 59.7487 35.6251 59.5496C35.1349 59.3505 34.5529 59.5803 34.3232 60.0704C34.0934 60.5758 34.3844 61.1578 34.8746 61.3416Z" fill="#58595B"/>
<path d="M33.649 65.0022C34.1545 65.1554 34.7058 64.8797 34.8743 64.3896C35.0428 63.8995 34.7671 63.3481 34.2617 63.1643C33.7562 62.9805 33.2048 63.2562 33.0364 63.7769C32.8679 64.2977 33.1436 64.8491 33.649 65.0022Z" fill="#58595B"/>
<path d="M92.1879 151.279C92.2339 150.727 91.8203 150.329 91.3149 150.253C90.7941 150.191 90.3346 150.559 90.2734 151.095C90.2121 151.631 90.6103 152.121 91.1464 152.182C91.6825 152.259 92.1573 151.8 92.1879 151.279Z" fill="#58595B"/>
<path d="M96.0469 151.401C96.0469 150.865 95.6333 150.421 95.1126 150.406C94.5918 150.39 94.1477 150.804 94.117 151.34C94.0864 151.876 94.5152 152.32 95.0513 152.336C95.6027 152.366 96.0469 151.937 96.0469 151.401Z" fill="#58595B"/>
<path d="M99.9066 151.355C99.876 150.819 99.4318 150.421 98.911 150.452C98.3903 150.482 97.9614 150.942 97.9768 151.478C97.9768 152.014 98.4209 152.412 98.9723 152.382C99.5237 152.351 99.9372 151.876 99.9066 151.355Z" fill="#58595B"/>
<path d="M107.595 150.559C107.503 150.038 107.013 149.671 106.508 149.747C105.987 149.824 105.619 150.329 105.696 150.85C105.757 151.386 106.247 151.738 106.784 151.662C107.32 151.585 107.687 151.08 107.595 150.559Z" fill="#58595B"/>
<path d="M111.409 149.87C111.287 149.334 110.796 149.058 110.276 149.15C109.755 149.226 109.418 149.732 109.51 150.253C109.602 150.773 110.123 151.141 110.659 151.049C111.195 150.957 111.516 150.39 111.409 149.87Z" fill="#58595B"/>
<path d="M115.146 148.905C114.993 148.384 114.472 148.078 113.967 148.216C113.461 148.353 113.155 148.874 113.278 149.395C113.4 149.916 113.936 150.222 114.457 150.084C114.993 149.946 115.299 149.426 115.146 148.905Z" fill="#58595B"/>
<path d="M118.822 147.741C118.638 147.235 118.102 146.975 117.612 147.159C117.122 147.343 116.846 147.894 117.014 148.415C117.168 148.92 117.719 149.196 118.224 148.997C118.73 148.798 119.006 148.246 118.822 147.741Z" fill="#58595B"/>
<path d="M122.468 146.408C122.269 145.918 121.702 145.658 121.197 145.842C120.707 146.025 120.462 146.577 120.645 147.067C120.829 147.572 121.396 147.817 121.917 147.634C122.422 147.45 122.667 146.898 122.468 146.408Z" fill="#58595B"/>
<path d="M125.959 144.769C125.729 144.295 125.147 144.08 124.672 144.31C124.197 144.54 123.998 145.122 124.213 145.612C124.427 146.102 125.009 146.301 125.499 146.071C125.989 145.842 126.204 145.259 125.959 144.769Z" fill="#58595B"/>
<path d="M129.406 143.039C129.146 142.564 128.579 142.441 128.105 142.671C127.63 142.901 127.446 143.468 127.691 143.942C127.936 144.417 128.533 144.616 129.023 144.371C129.529 144.126 129.667 143.483 129.406 143.039Z" fill="#58595B"/>
<path d="M132.715 141.017C132.424 140.573 131.827 140.42 131.383 140.695C130.939 140.971 130.801 141.568 131.061 142.028C131.337 142.487 131.934 142.625 132.394 142.349C132.868 142.058 133.006 141.461 132.715 141.017Z" fill="#58595B"/>
<path d="M135.9 138.842C135.579 138.413 134.997 138.321 134.568 138.628C134.154 138.949 134.062 139.562 134.353 140.006C134.66 140.45 135.242 140.542 135.686 140.221C136.13 139.899 136.222 139.271 135.9 138.842Z" fill="#58595B"/>
<path d="M138.993 136.514C138.656 136.1 138.043 136.024 137.614 136.345C137.201 136.667 137.124 137.264 137.446 137.693C137.768 138.122 138.38 138.199 138.824 137.862C139.253 137.525 139.33 136.927 138.993 136.514Z" fill="#58595B"/>
<path d="M141.873 133.941C141.506 133.543 140.908 133.512 140.525 133.88C140.143 134.232 140.112 134.86 140.464 135.258C140.816 135.656 141.414 135.687 141.812 135.319C142.21 134.952 142.241 134.339 141.873 133.941Z" fill="#58595B"/>
<path d="M144.707 131.306C144.324 130.939 143.696 130.924 143.313 131.276C142.93 131.628 142.915 132.241 143.282 132.624C143.65 133.007 144.278 133.022 144.676 132.654C145.09 132.287 145.09 131.689 144.707 131.306Z" fill="#58595B"/>
<path d="M147.264 128.412C146.866 128.059 146.253 128.105 145.901 128.488C145.549 128.886 145.595 129.499 145.993 129.851C146.391 130.219 146.988 130.173 147.356 129.775C147.708 129.361 147.662 128.749 147.264 128.412Z" fill="#58595B"/>
<path d="M149.746 125.44C149.318 125.119 148.736 125.195 148.429 125.624C148.077 126.022 148.138 126.62 148.552 126.957C148.965 127.294 149.593 127.232 149.946 126.834C150.252 126.39 150.16 125.762 149.746 125.44Z" fill="#58595B"/>
<path d="M151.983 122.285C151.538 121.979 150.941 122.086 150.635 122.515C150.328 122.944 150.436 123.541 150.865 123.863C151.293 124.184 151.906 124.077 152.212 123.633C152.534 123.189 152.427 122.591 151.983 122.285Z" fill="#58595B"/>
<path d="M154.065 119.038C153.605 118.762 153.023 118.916 152.763 119.375C152.503 119.835 152.656 120.432 153.1 120.723C153.544 121.014 154.126 120.861 154.402 120.386C154.677 119.911 154.524 119.314 154.065 119.038Z" fill="#58595B"/>
<path d="M155.98 115.684C155.505 115.439 154.908 115.607 154.648 116.067C154.387 116.526 154.556 117.108 155.015 117.369C155.475 117.629 156.072 117.461 156.348 116.986C156.623 116.511 156.455 115.929 155.98 115.684Z" fill="#58595B"/>
<path d="M157.618 112.176C157.128 111.962 156.561 112.176 156.347 112.651C156.133 113.126 156.347 113.708 156.837 113.938C157.312 114.168 157.894 113.953 158.108 113.463C158.323 112.973 158.108 112.391 157.618 112.176Z" fill="#58595B"/>
<path d="M159.15 108.638C158.645 108.439 158.139 108.715 157.894 109.174C157.68 109.649 157.91 110.216 158.4 110.415C158.89 110.614 159.472 110.384 159.686 109.894C159.947 109.404 159.64 108.822 159.15 108.638Z" fill="#58595B"/>
<path d="M160.375 104.962C159.87 104.809 159.318 105.085 159.15 105.575C158.981 106.065 159.257 106.617 159.762 106.8C160.268 106.984 160.819 106.708 160.988 106.188C161.156 105.667 160.88 105.116 160.375 104.962Z" fill="#58595B"/>
<path d="M161.432 101.241C160.911 101.118 160.39 101.424 160.283 101.93C160.176 102.435 160.482 102.971 160.988 103.124C161.508 103.278 162.029 102.971 162.152 102.435C162.274 101.915 161.953 101.378 161.432 101.241Z" fill="#58595B"/>
<path d="M162.29 97.4728C161.769 97.3809 161.248 97.7025 161.126 98.2233C161.003 98.7287 161.34 99.2495 161.861 99.3567C162.382 99.4792 162.902 99.1422 163.025 98.6062C163.147 98.0854 162.826 97.58 162.29 97.4728Z" fill="#58595B"/>
<path d="M162.872 93.659C162.336 93.5977 161.861 93.95 161.785 94.4708C161.723 94.9915 162.091 95.4816 162.612 95.5735C163.133 95.6654 163.623 95.2978 163.699 94.7618C163.776 94.2104 163.393 93.7203 162.872 93.659Z" fill="#58595B"/>
<path d="M163.132 78.2355C162.596 78.2967 162.198 78.7562 162.229 79.277C162.259 79.7977 162.719 80.1959 163.255 80.1653C163.791 80.1347 164.189 79.6599 164.159 79.1238C164.128 78.5724 163.668 78.1742 163.132 78.2355Z" fill="#58595B"/>
<path d="M163.132 82.0646C162.596 82.1258 162.198 82.5853 162.229 83.1061C162.259 83.6268 162.719 84.0251 163.255 83.9944C163.791 83.9638 164.189 83.489 164.159 82.9529C164.128 82.4015 163.668 82.0033 163.132 82.0646Z" fill="#58595B"/>
<path d="M163.132 85.9089C162.596 85.9702 162.198 86.4297 162.229 86.9504C162.259 87.4712 162.719 87.8694 163.255 87.8388C163.791 87.8082 164.189 87.3333 164.159 86.7973C164.128 86.2459 163.668 85.8477 163.132 85.9089Z" fill="#58595B"/>
<path d="M163.132 89.7841C162.596 89.8453 162.198 90.3048 162.229 90.8256C162.259 91.3463 162.719 91.7445 163.255 91.7139C163.791 91.6833 164.189 91.2085 164.159 90.6724C164.128 90.121 163.668 89.7228 163.132 89.7841Z" fill="#58595B"/>
<path d="M162.58 74.4064C162.059 74.4983 161.692 74.9884 161.768 75.4939C161.845 76.0146 162.35 76.3822 162.871 76.3056C163.407 76.2444 163.76 75.7543 163.683 75.2182C163.606 74.6821 163.116 74.3145 162.58 74.4064Z" fill="#58595B"/>
<path d="M161.908 70.5927C161.372 70.7152 161.096 71.2053 161.188 71.7261C161.265 72.2468 161.77 72.5838 162.291 72.4919C162.812 72.4 163.179 71.8793 163.087 71.3432C162.98 70.8071 162.414 70.4855 161.908 70.5927Z" fill="#58595B"/>
<path d="M160.926 66.8556C160.406 67.0087 160.099 67.5295 160.237 68.0349C160.375 68.5403 160.896 68.8467 161.416 68.7241C161.937 68.6016 162.244 68.0655 162.106 67.5448C161.968 67.024 161.447 66.7024 160.926 66.8556Z" fill="#58595B"/>
<path d="M159.763 63.1796C159.258 63.3634 158.997 63.8994 159.181 64.3896C159.365 64.8797 159.916 65.1554 160.437 64.9869C160.943 64.8337 161.203 64.2823 161.019 63.7769C160.835 63.2715 160.269 62.9958 159.763 63.1796Z" fill="#58595B"/>
<path d="M158.446 59.5343C157.956 59.7334 157.696 60.3001 157.88 60.8055C158.063 61.2956 158.615 61.5407 159.105 61.3569C159.61 61.1731 159.855 60.6064 159.672 60.0856C159.488 59.5802 158.936 59.3351 158.446 59.5343Z" fill="#58595B"/>
<path d="M156.806 56.0421C156.331 56.2719 156.117 56.8539 156.347 57.3287C156.576 57.8035 157.158 58.0026 157.648 57.7882C158.139 57.5738 158.338 56.9917 158.108 56.5016C157.863 56.0115 157.281 55.7971 156.806 56.0421Z" fill="#58595B"/>
<path d="M155.06 52.5961C154.585 52.8564 154.463 53.4231 154.693 53.8979C154.922 54.3727 155.489 54.5565 155.964 54.3115C156.439 54.0664 156.638 53.4691 156.393 52.979C156.163 52.4735 155.52 52.3357 155.06 52.5961Z" fill="#58595B"/>
<path d="M153.053 49.2878C152.609 49.5788 152.456 50.1761 152.732 50.6203C153.007 51.0645 153.605 51.2023 154.064 50.9419C154.524 50.6662 154.662 50.0689 154.386 49.6094C154.095 49.1346 153.498 48.9968 153.053 49.2878Z" fill="#58595B"/>
<path d="M150.879 46.1019C150.451 46.4236 150.359 47.0056 150.665 47.4344C150.987 47.848 151.599 47.9399 152.043 47.6489C152.488 47.3425 152.579 46.7605 152.258 46.3163C151.921 45.8722 151.308 45.7803 150.879 46.1019Z" fill="#58595B"/>
<path d="M148.536 43.0081C148.122 43.3451 148.046 43.9577 148.367 44.3866C148.689 44.8001 149.286 44.8767 149.715 44.5551C150.144 44.2334 150.22 43.6208 149.883 43.1766C149.547 42.7477 148.949 42.6712 148.536 43.0081Z" fill="#58595B"/>
<path d="M145.977 40.1286C145.579 40.4961 145.548 41.0935 145.916 41.4764C146.268 41.8593 146.896 41.8899 147.294 41.5377C147.693 41.1854 147.723 40.588 147.356 40.1898C146.988 39.7916 146.375 39.761 145.977 40.1286Z" fill="#58595B"/>
<path d="M143.343 37.2951C142.975 37.678 142.96 38.3059 143.312 38.6888C143.664 39.0717 144.277 39.0871 144.66 38.7195C145.043 38.3519 145.058 37.7239 144.691 37.3257C144.308 36.9122 143.71 36.9122 143.343 37.2951Z" fill="#58595B"/>
<path d="M140.433 34.7372C140.081 35.1354 140.127 35.7481 140.509 36.1004C140.908 36.4526 141.52 36.4067 141.888 36.0085C142.256 35.6103 142.21 35.0129 141.811 34.6453C141.398 34.2931 140.785 34.339 140.433 34.7372Z" fill="#58595B"/>
<path d="M137.478 32.2559C137.156 32.6848 137.233 33.2668 137.662 33.5731C138.06 33.9254 138.657 33.8642 138.994 33.4506C139.331 33.0371 139.27 32.4091 138.872 32.0568C138.427 31.7505 137.8 31.8424 137.478 32.2559Z" fill="#58595B"/>
<path d="M134.322 30.0198C134.016 30.464 134.123 31.0613 134.552 31.3677C134.981 31.674 135.578 31.5668 135.9 31.1379C136.221 30.7091 136.114 30.0964 135.67 29.7901C135.226 29.4685 134.629 29.5757 134.322 30.0198Z" fill="#58595B"/>
<path d="M131.06 27.9368C130.784 28.3963 130.938 28.9783 131.397 29.2387C131.857 29.499 132.454 29.3459 132.745 28.9017C133.036 28.4575 132.883 27.8755 132.408 27.5998C131.949 27.3241 131.336 27.4773 131.06 27.9368Z" fill="#58595B"/>
<path d="M127.707 26.0224C127.462 26.4972 127.63 27.0945 128.09 27.3549C128.549 27.6152 129.131 27.4468 129.391 26.9873C129.652 26.5278 129.483 25.9305 129.009 25.6548C128.534 25.3791 127.952 25.5475 127.707 26.0224Z" fill="#58595B"/>
<path d="M124.213 24.3834C123.998 24.8735 124.213 25.4402 124.688 25.6547C125.162 25.8691 125.744 25.6547 125.974 25.1645C126.204 24.6897 125.989 24.1077 125.499 23.8933C125.009 23.6789 124.427 23.8933 124.213 24.3834Z" fill="#58595B"/>
<path d="M120.66 22.8519C120.46 23.3573 120.736 23.8627 121.196 24.1078C121.67 24.3222 122.237 24.0925 122.436 23.6024C122.635 23.1122 122.406 22.5302 121.915 22.3005C121.425 22.0554 120.843 22.3617 120.66 22.8519Z" fill="#58595B"/>
<path d="M117 21.6265C116.846 22.1319 117.122 22.6833 117.612 22.8518C118.102 23.0203 118.654 22.7446 118.838 22.2392C119.021 21.7337 118.746 21.1823 118.225 21.0139C117.704 20.8454 117.153 21.1211 117 21.6265Z" fill="#58595B"/>
<path d="M113.278 20.5698C113.155 21.0905 113.462 21.6113 113.967 21.7185C114.473 21.8257 115.009 21.5194 115.162 21.0139C115.315 20.4932 115.009 19.9724 114.473 19.8499C113.936 19.7274 113.4 20.049 113.278 20.5698Z" fill="#58595B"/>
<path d="M109.511 19.712C109.419 20.2327 109.741 20.7535 110.261 20.876C110.767 20.9985 111.288 20.6616 111.395 20.1408C111.517 19.6201 111.18 19.0993 110.644 18.9768C110.124 18.8543 109.603 19.1759 109.511 19.712Z" fill="#58595B"/>
<path d="M105.681 19.1299C105.619 19.666 105.987 20.1408 106.493 20.2174C107.013 20.2787 107.503 19.9111 107.595 19.3903C107.687 18.8696 107.32 18.3794 106.784 18.3029C106.247 18.2263 105.757 18.6092 105.681 19.1299Z" fill="#58595B"/>
<path d="M101.853 18.701C101.807 19.2524 102.22 19.6506 102.726 19.7272C103.246 19.7885 103.706 19.4209 103.767 18.8848C103.828 18.3487 103.43 17.8586 102.894 17.7974C102.358 17.7055 101.883 18.1803 101.853 18.701Z" fill="#58595B"/>
<path d="M97.9768 18.5632C97.9768 19.0993 98.3903 19.5435 98.9111 19.5588C99.4319 19.5741 99.876 19.1606 99.9067 18.6245C99.9373 18.0884 99.5084 17.6443 98.9724 17.629C98.4363 17.6136 97.9921 18.0272 97.9768 18.5632Z" fill="#58595B"/>
<path d="M94.1166 18.6245C94.1473 19.1606 94.5914 19.5588 95.1122 19.5282C95.6329 19.4976 96.0618 19.0381 96.0465 18.502C96.0465 17.9659 95.6023 17.5677 95.0509 17.5983C94.5149 17.629 94.086 18.0885 94.1166 18.6245Z" fill="#58595B"/>
<path d="M90.2579 18.8696C90.3192 19.4057 90.7787 19.8039 91.2994 19.7733C91.8202 19.7427 92.2184 19.2832 92.1878 18.7471C92.1572 18.211 91.6824 17.8128 91.1463 17.8435C90.5949 17.8741 90.1967 18.3336 90.2579 18.8696Z" fill="#58595B"/>
<path d="M86.4286 19.4209C86.5205 19.9417 87.0106 20.3093 87.516 20.2327C88.0368 20.1561 88.4044 19.6507 88.3278 19.1299C88.2665 18.5939 87.7764 18.2416 87.2403 18.3182C86.7196 18.3948 86.352 18.8849 86.4286 19.4209Z" fill="#58595B"/>
<path d="M82.6306 20.095C82.7532 20.631 83.2433 20.9067 83.764 20.8148C84.2848 20.7382 84.6217 20.2328 84.5298 19.712C84.4379 19.1913 83.9172 18.8237 83.3811 18.9156C82.8451 19.0228 82.5081 19.5895 82.6306 20.095Z" fill="#58595B"/>
<path d="M78.8935 21.0751C79.0467 21.5959 79.5674 21.9022 80.0729 21.7644C80.5783 21.6265 80.8846 21.1058 80.7621 20.585C80.6396 20.0643 80.1035 19.7579 79.5827 19.8958C79.0467 20.0336 78.7403 20.5544 78.8935 21.0751Z" fill="#58595B"/>
<path d="M75.2017 22.2391C75.3855 22.7446 75.9215 23.0049 76.4116 22.8211C76.9018 22.6373 77.1774 22.086 77.009 21.5652C76.8558 21.0598 76.3044 20.7841 75.799 20.9832C75.2936 21.167 75.0332 21.7337 75.2017 22.2391Z" fill="#58595B"/>
<path d="M71.5714 23.5564C71.7705 24.0465 72.3372 24.3069 72.8427 24.1231C73.3328 23.9393 73.5779 23.3879 73.3941 22.8978C73.2103 22.3924 72.6436 22.1473 72.1228 22.3311C71.6174 22.5149 71.3723 23.0663 71.5714 23.5564Z" fill="#58595B"/>
<path d="M68.0645 25.1952C68.2942 25.6701 68.8762 25.8845 69.351 25.6547C69.8258 25.425 70.025 24.843 69.8105 24.3528C69.5961 23.8627 69.0141 23.6636 68.524 23.8934C68.0338 24.1384 67.8347 24.7204 68.0645 25.1952Z" fill="#58595B"/>
<path d="M64.6175 26.9413C64.8779 27.4161 65.4446 27.5386 65.9194 27.3089C66.3942 27.0792 66.578 26.5125 66.3329 26.0376C66.0879 25.5628 65.4905 25.3637 65.0004 25.6088C64.5103 25.8385 64.3571 26.4818 64.6175 26.9413Z" fill="#58595B"/>
<path d="M61.3241 28.9477C61.6151 29.3919 62.2125 29.5451 62.6566 29.2694C63.1008 28.9937 63.2387 28.3963 62.9783 27.9368C62.7026 27.4774 62.1052 27.3395 61.6458 27.6152C61.171 27.9062 61.0331 28.5036 61.3241 28.9477Z" fill="#58595B"/>
<path d="M58.1235 31.1226C58.4451 31.5514 59.0272 31.6433 59.456 31.337C59.8696 31.0154 59.9615 30.4027 59.6704 29.9586C59.3641 29.5144 58.7821 29.4225 58.3379 29.7441C57.9091 30.0811 57.8172 30.6937 58.1235 31.1226Z" fill="#58595B"/>
<path d="M55.045 33.4659C55.382 33.8795 55.9946 33.9561 56.4235 33.6344C56.837 33.3128 56.9136 32.7154 56.5919 32.2866C56.2703 31.8577 55.6576 31.7811 55.2135 32.1181C54.7846 32.4551 54.708 33.0524 55.045 33.4659Z" fill="#58595B"/>
<path d="M52.1495 36.0239C52.517 36.4221 53.1144 36.4527 53.4973 36.0851C53.8802 35.7329 53.9108 35.1049 53.5586 34.7067C53.2063 34.3084 52.6089 34.2778 52.2107 34.6454C51.8125 35.013 51.7819 35.6256 52.1495 36.0239Z" fill="#58595B"/>
<path d="M49.3782 38.7195C49.7611 39.0871 50.3737 39.0871 50.726 38.7042C51.0936 38.3213 51.0783 37.7086 50.7107 37.3257C50.3431 36.9428 49.7304 36.9428 49.3628 37.341C48.9799 37.7392 48.9953 38.3519 49.3782 38.7195Z" fill="#58595B"/>
</svg>
