<svg width="12" height="12" viewBox="0 0 12 12" fill="none" xmlns="http://www.w3.org/2000/svg">
<path d="M9.30371 2.42857C9.45163 2.42857 9.57156 2.30864 9.57156 2.16071V1.26786C9.57156 1.11993 9.45163 1 9.30371 1H2.69657C2.54864 1 2.42871 1.11993 2.42871 1.26786V2.2667C2.42871 2.41462 2.54864 2.53455 2.69657 2.53455H4.60014C5.20969 2.53455 5.67739 2.75683 5.96108 3.14286H2.69657C2.54864 3.14286 2.42871 3.26279 2.42871 3.41071V4.30357C2.42871 4.4515 2.54864 4.57143 2.69657 4.57143H6.24025C6.10148 5.37692 5.50451 5.88018 4.57157 5.88018H2.69657C2.54864 5.88018 2.42871 6.00011 2.42871 6.14804V7.33134C2.42871 7.40609 2.45996 7.47746 2.51489 7.52817L6.19909 10.929C6.24857 10.9746 6.31343 11 6.38076 11H8.22366C8.4675 11 8.58451 10.7007 8.40534 10.5353L5.03744 7.42647C6.745 7.37424 7.96476 6.23462 8.12489 4.57143H9.30371C9.45163 4.57143 9.57156 4.4515 9.57156 4.30357V3.41071C9.57156 3.26279 9.45163 3.14286 9.30371 3.14286H7.99366C7.91585 2.88525 7.80884 2.64629 7.67554 2.42857H9.30371Z" fill="#767676"/>
</svg>
