<svg width="16" height="16" viewBox="0 0 16 16" fill="none" xmlns="http://www.w3.org/2000/svg">
<path d="M14.4837 12.8609L11.8876 10.2648C11.7705 10.1476 11.6116 10.0825 11.445 10.0825H11.0205C11.7392 9.16334 12.1663 8.0072 12.1663 6.74951C12.1663 3.75762 9.74202 1.33337 6.75012 1.33337C3.75823 1.33337 1.33398 3.75762 1.33398 6.74951C1.33398 9.74141 3.75823 12.1657 6.75012 12.1657C8.00781 12.1657 9.16395 11.7386 10.0831 11.0199V11.4444C10.0831 11.611 10.1482 11.7699 10.2654 11.887L12.8615 14.4831C13.1063 14.7279 13.5021 14.7279 13.7442 14.4831L14.4811 13.7462C14.7259 13.5015 14.7259 13.1057 14.4837 12.8609ZM6.75012 10.0825C4.90916 10.0825 3.41711 8.59308 3.41711 6.74951C3.41711 4.90855 4.90655 3.4165 6.75012 3.4165C8.59109 3.4165 10.0831 4.90594 10.0831 6.74951C10.0831 8.59048 8.59369 10.0825 6.75012 10.0825Z" fill="#B9B9B9"/>
</svg>
