<svg width="16" height="16" viewBox="0 0 16 16" fill="none" xmlns="http://www.w3.org/2000/svg">
<path d="M6.00008 2.66663C3.05341 2.66663 0.666748 5.05329 0.666748 7.99996C0.666748 10.9466 3.05341 13.3333 6.00008 13.3333C8.94675 13.3333 11.3334 10.9466 11.3334 7.99996C11.3334 5.05329 8.94675 2.66663 6.00008 2.66663ZM6.00008 12C3.79341 12 2.00008 10.2066 2.00008 7.99996C2.00008 5.79329 3.79341 3.99996 6.00008 3.99996C8.20675 3.99996 10.0001 5.79329 10.0001 7.99996C10.0001 10.2066 8.20675 12 6.00008 12ZM11.3334 2.83996V4.23329C12.8867 4.77996 14.0001 6.25996 14.0001 7.99996C14.0001 9.73996 12.8867 11.22 11.3334 11.7666V13.16C13.6334 12.5666 15.3334 10.4866 15.3334 7.99996C15.3334 5.51329 13.6334 3.43329 11.3334 2.83996Z" fill="#8C8C8C"/>
</svg>
